<svg width="581" height="581" viewBox="0 0 581 581" fill="none" xmlns="http://www.w3.org/2000/svg">
<path d="M120.104 330.207C122.134 315.51 127.604 304.707 133.104 303.707C133.104 303.707 151.104 302.207 158.604 302.707C166.104 303.207 164.104 303.207 170.604 311.707L181.104 323.707C194.604 337.707 195.104 338.707 200.604 341.207C206.104 343.707 225.251 354.498 248.604 360.207C271.259 363.464 283.955 364.112 306.604 363.207C332.319 362.07 356.572 354.295 381.604 342.207C394.609 336.681 399.435 329.65 408.423 319.207C414.291 312.39 415.604 304.707 418.104 304.207H443.104C455.996 304.54 460.417 309.539 462.604 328.207L491.104 458.207C495.524 477.655 470.604 492.207 467.104 491.707C463.604 491.207 409.104 491.707 408.604 491.707C408.104 491.707 404.104 496.207 403.604 496.207H172.104C171.604 496.207 169.604 490.707 167.104 490.707C164.604 490.707 117.251 489.786 112.604 489.207C107.956 488.629 86.6695 476.262 91.6037 454.207C96.5378 432.153 120.104 330.207 120.104 330.207Z" fill="black"/>
<path d="M168.487 283.518C164.428 276.915 159.075 268.207 156.104 268.207C153.104 268.207 146.601 269.802 145 270.5C132.828 275.806 128.5 272.5 115 269.5C105.469 267.382 94.2669 260.514 93.1037 270.207C92.9641 271.37 93.4546 272.089 93.1037 273.207C92.4368 275.331 90.7616 276.159 88.6037 276.707C87.2789 277.044 85.3978 276.647 84.1037 276.207C82.6597 275.717 82.1889 275.279 81.1037 274.207C71.9333 265.153 73.7792 251.545 82.1037 241.707C83.1739 240.442 84.0953 239.393 85.6037 238.707L85.6718 238.676C87.405 237.888 88.3223 237.471 90.1037 238.207C91.5131 238.79 92.4491 239.33 93.1037 240.707C93.7742 242.118 92.8303 243.169 93.1037 244.707C94.6417 253.358 112.741 254.825 116.104 246.707C116.604 245.5 117.5 244 117.5 243C117.5 242.024 117.741 240.907 118.104 240C118.249 239.637 118.234 238.575 118.104 238.207C117.869 237.543 117.149 237.653 116.604 237.207C114.969 235.87 114.272 234.711 113.604 232.707C112.801 230.299 113.004 228.674 113.604 226.207C114.058 224.338 114.568 223.328 115.604 221.707C117.091 219.38 117.984 217.58 120.604 216.707C122.456 216.09 125.846 218.645 125.604 216.707C125.483 215.738 125.525 215.588 125.104 214.707C124.177 212.769 123.437 213.01 124.604 211.207C125.283 210.157 126.225 209.952 126.104 208.707C126.036 208.006 126.104 203.707 126.104 203.707C126.104 203.707 126.389 201.022 126.604 199.207C126.757 197.906 124.5 196.956 124.104 195.707C123.336 193.287 122.65 191.288 124.104 189.207C124.82 188.182 125.485 187.266 126.604 186.707C127.604 186.207 130.604 185.707 132.604 186.207C134.604 186.707 135.667 188.334 136.104 189.207C136.54 190.08 136.604 190.231 136.604 191.207C136.604 193.55 136.802 195.194 135.604 197.207C134.824 198.518 134 199.207 134 201.5C134 205.405 130.259 210.378 134 211.5C135.122 211.837 134.432 209.707 135.604 209.707C139.118 209.707 143.663 213.094 144.604 209.707C144.865 208.766 145.047 208.077 144.604 207.207C144.086 206.193 142.621 206.721 142.104 205.707C141.66 204.837 142.04 204.181 142.104 203.207C142.233 201.22 141.932 198.402 143.104 198.207L146.104 197.707C147.275 197.512 152.783 199.196 156.604 197.707C161.108 195.952 165.104 188.707 165.104 188.707L414.104 188.207C414.104 188.207 414.269 193.793 416.5 195C418.731 196.207 420.129 196.207 423 196.207H428C430.734 196.207 432.515 198.432 434.104 196.207C435.239 194.618 433.296 192.485 434.104 190.707C434.789 189.199 436.266 187.089 437.896 186.793C441.793 186.086 442.138 186.57 444.5 187.5C446.063 188.116 446.318 189.223 447.104 190.707C447.926 192.26 447.769 193.581 447.104 195.207C446.318 197.128 443.104 195.192 443.104 198.707V207.707C443.104 211.222 446.119 209.021 447.104 210.707C448.384 212.899 445.002 215.784 447.104 217.207C449.63 218.917 449.956 210.426 452.104 211.207L457.604 213.207C459.752 213.988 458.924 216.713 458.104 218.707C457.314 220.627 454.563 220.183 454.104 222.207C453.931 222.969 453.716 223.529 454.104 224.207C454.782 225.394 456.385 223.589 457.604 224.207C458.719 224.773 458.798 225.751 459.604 226.707C463.075 230.826 467.876 231.105 469.604 236.207C470.794 239.721 467.048 243.017 469.604 245.707C472.293 248.538 478.001 249.268 479.604 245.707C480.325 244.105 478.892 242.814 479.604 241.207C479.999 240.314 480.326 239.797 481.104 239.207C482.815 237.909 484.8 238.04 486.604 239.207C487.299 239.657 487.665 240.005 488.104 240.707C489.139 242.363 488.104 243.754 488.104 245.707C488.104 247.66 489.104 245.707 489.104 245.707C489.104 245.707 495.161 243.786 498.104 245.707C499.611 246.691 501.104 249.207 501.104 249.207V264.707C501.104 270.76 498.104 269.707 498.104 269.707C498.104 269.707 491.676 267.312 489.104 269.707C487.296 271.39 489.177 274.365 487.104 275.707C485.3 276.874 483.362 276.941 481.604 275.707C480.03 274.602 480.849 272.673 479.604 271.207C478.02 269.343 476.53 267.889 474.104 268.207C472.543 268.412 471.133 268.725 470.604 270.207C470.016 271.852 471.816 272.649 472.604 274.207C483.105 294.979 501.196 304.568 506.604 327.207C507.298 330.112 507.626 331.509 505.604 333.707C504.474 334.935 501.769 335.3 500.104 335.207C497.205 335.045 496.476 334.925 494.604 332.707C482.889 318.826 484.261 303.702 472.104 290.207C468.498 286.205 467.16 282.564 462.104 280.707C459.33 279.689 459.48 277.884 456.604 277.207C455.22 276.882 454.263 277.03 453.104 276.207C450.537 274.384 453.767 270.88 452.104 268.207C450.782 266.084 449.467 265.024 447.104 264.207C443.736 263.043 441.571 264.885 438.104 265.707C432.455 267.046 428.658 267.107 424.104 270.707C420.151 273.832 419.268 276.93 416.604 281.207C414.708 284.249 413.861 286.083 412.104 289.207C412.104 289.207 405.17 304.691 398.604 313.207C394.722 318.242 392.271 320.89 387.604 325.207C381.038 331.28 376.782 334.12 369.104 338.707C356.776 346.071 348.949 348.899 335.104 352.707C324.023 355.755 317.556 356.752 306.104 357.707C291.699 358.908 269.104 356.707 269.104 356.707C269.104 356.707 255.249 355.289 246.604 353.207C234.472 350.286 227.674 347.966 216.604 342.207L216.295 342.047C205.283 336.318 198.628 332.856 190.104 323.707C184.564 317.762 182.093 313.787 178.104 306.707C173.333 298.241 173.693 291.986 168.604 283.707L168.487 283.518Z" fill="black"/>
<path d="M120.104 330.207C122.134 315.51 127.604 304.707 133.104 303.707C133.104 303.707 151.104 302.207 158.604 302.707C166.104 303.207 164.104 303.207 170.604 311.707L181.104 323.707C194.604 337.707 195.104 338.707 200.604 341.207C206.104 343.707 225.251 354.498 248.604 360.207C271.259 363.464 283.955 364.112 306.604 363.207C332.319 362.07 356.572 354.295 381.604 342.207C394.609 336.681 399.435 329.65 408.423 319.207C414.291 312.39 415.604 304.707 418.104 304.207H443.104C455.996 304.54 460.417 309.539 462.604 328.207L491.104 458.207C495.524 477.655 470.604 492.207 467.104 491.707C463.604 491.207 409.104 491.707 408.604 491.707C408.104 491.707 404.104 496.207 403.604 496.207H172.104C171.604 496.207 169.604 490.707 167.104 490.707C164.604 490.707 117.251 489.786 112.604 489.207C107.956 488.629 86.6695 476.262 91.6037 454.207C96.5378 432.153 120.104 330.207 120.104 330.207Z" stroke="#FFFCFC"/>
<path d="M168.487 283.518C164.428 276.915 159.075 268.207 156.104 268.207C153.104 268.207 146.601 269.802 145 270.5C132.828 275.806 128.5 272.5 115 269.5C105.469 267.382 94.2669 260.514 93.1037 270.207C92.9641 271.37 93.4546 272.089 93.1037 273.207C92.4368 275.331 90.7616 276.159 88.6037 276.707C87.2789 277.044 85.3978 276.647 84.1037 276.207C82.6597 275.717 82.1889 275.279 81.1037 274.207C71.9333 265.153 73.7792 251.545 82.1037 241.707C83.1739 240.442 84.0953 239.393 85.6037 238.707L85.6718 238.676C87.405 237.888 88.3223 237.471 90.1037 238.207C91.5131 238.79 92.4491 239.33 93.1037 240.707C93.7742 242.118 92.8303 243.169 93.1037 244.707C94.6417 253.358 112.741 254.825 116.104 246.707C116.604 245.5 117.5 244 117.5 243C117.5 242.024 117.741 240.907 118.104 240C118.249 239.637 118.234 238.575 118.104 238.207C117.869 237.543 117.149 237.653 116.604 237.207C114.969 235.87 114.272 234.711 113.604 232.707C112.801 230.299 113.004 228.674 113.604 226.207C114.058 224.338 114.568 223.328 115.604 221.707C117.091 219.38 117.984 217.58 120.604 216.707C122.456 216.09 125.846 218.645 125.604 216.707C125.483 215.738 125.525 215.588 125.104 214.707C124.177 212.769 123.437 213.01 124.604 211.207C125.283 210.157 126.225 209.952 126.104 208.707C126.036 208.006 126.104 203.707 126.104 203.707C126.104 203.707 126.389 201.022 126.604 199.207C126.757 197.906 124.5 196.956 124.104 195.707C123.336 193.287 122.65 191.288 124.104 189.207C124.82 188.182 125.485 187.266 126.604 186.707C127.604 186.207 130.604 185.707 132.604 186.207C134.604 186.707 135.667 188.334 136.104 189.207C136.54 190.08 136.604 190.231 136.604 191.207C136.604 193.55 136.802 195.194 135.604 197.207C134.824 198.518 134 199.207 134 201.5C134 205.405 130.259 210.378 134 211.5C135.122 211.837 134.432 209.707 135.604 209.707C139.118 209.707 143.663 213.094 144.604 209.707C144.865 208.766 145.047 208.077 144.604 207.207C144.086 206.193 142.621 206.721 142.104 205.707C141.66 204.837 142.04 204.181 142.104 203.207C142.233 201.22 141.932 198.402 143.104 198.207L146.104 197.707C147.275 197.512 152.783 199.196 156.604 197.707C161.108 195.952 165.104 188.707 165.104 188.707L414.104 188.207C414.104 188.207 414.269 193.793 416.5 195C418.731 196.207 420.129 196.207 423 196.207H428C430.734 196.207 432.515 198.432 434.104 196.207C435.239 194.618 433.296 192.485 434.104 190.707C434.789 189.199 436.266 187.089 437.896 186.793C441.793 186.086 442.138 186.57 444.5 187.5C446.063 188.116 446.318 189.223 447.104 190.707C447.926 192.26 447.769 193.581 447.104 195.207C446.318 197.128 443.104 195.192 443.104 198.707V207.707C443.104 211.222 446.119 209.021 447.104 210.707C448.384 212.899 445.002 215.784 447.104 217.207C449.63 218.917 449.956 210.426 452.104 211.207L457.604 213.207C459.752 213.988 458.924 216.713 458.104 218.707C457.314 220.627 454.563 220.183 454.104 222.207C453.931 222.969 453.716 223.529 454.104 224.207C454.782 225.394 456.385 223.589 457.604 224.207C458.719 224.773 458.798 225.751 459.604 226.707C463.075 230.826 467.876 231.105 469.604 236.207C470.794 239.721 467.048 243.017 469.604 245.707C472.293 248.538 478.001 249.268 479.604 245.707C480.325 244.105 478.892 242.814 479.604 241.207C479.999 240.314 480.326 239.797 481.104 239.207C482.815 237.909 484.8 238.04 486.604 239.207C487.299 239.657 487.665 240.005 488.104 240.707C489.139 242.363 488.104 243.754 488.104 245.707C488.104 247.66 489.104 245.707 489.104 245.707C489.104 245.707 495.161 243.786 498.104 245.707C499.611 246.691 501.104 249.207 501.104 249.207V264.707C501.104 270.76 498.104 269.707 498.104 269.707C498.104 269.707 491.676 267.312 489.104 269.707C487.296 271.39 489.177 274.365 487.104 275.707C485.3 276.874 483.362 276.941 481.604 275.707C480.03 274.602 480.849 272.673 479.604 271.207C478.02 269.343 476.53 267.889 474.104 268.207C472.543 268.412 471.133 268.725 470.604 270.207C470.016 271.852 471.816 272.649 472.604 274.207C483.105 294.979 501.196 304.568 506.604 327.207C507.298 330.112 507.626 331.509 505.604 333.707C504.474 334.935 501.769 335.3 500.104 335.207C497.205 335.045 496.476 334.925 494.604 332.707C482.889 318.826 484.261 303.702 472.104 290.207C468.498 286.205 467.16 282.564 462.104 280.707C459.33 279.689 459.48 277.884 456.604 277.207C455.22 276.882 454.263 277.03 453.104 276.207C450.537 274.384 453.767 270.88 452.104 268.207C450.782 266.084 449.467 265.024 447.104 264.207C443.736 263.043 441.571 264.885 438.104 265.707C432.455 267.046 428.658 267.107 424.104 270.707C420.151 273.832 419.268 276.93 416.604 281.207C414.708 284.249 413.861 286.083 412.104 289.207C412.104 289.207 405.17 304.691 398.604 313.207C394.722 318.242 392.271 320.89 387.604 325.207C381.038 331.28 376.782 334.12 369.104 338.707C356.776 346.071 348.949 348.899 335.104 352.707C324.023 355.755 317.556 356.752 306.104 357.707C291.699 358.908 269.104 356.707 269.104 356.707C269.104 356.707 255.249 355.289 246.604 353.207C234.472 350.286 227.674 347.966 216.604 342.207L216.295 342.047C205.283 336.318 198.628 332.856 190.104 323.707C184.564 317.762 182.093 313.787 178.104 306.707C173.333 298.241 173.693 291.986 168.604 283.707L168.487 283.518Z" stroke="#FFFCFC"/>
</svg>
