<svg width="117" height="39" viewBox="0 0 117 39" fill="none" xmlns="http://www.w3.org/2000/svg">
<mask id="path-1-outside-1_9_6" maskUnits="userSpaceOnUse" x="-1" y="-1" width="119" height="41" fill="black">
<rect fill="white" x="-1" y="-1" width="119" height="41"/>
<path d="M1.19727 1.08594H5.15234V1.7207H6.86133V1.08594H9.74219V1.7207H12.5742V2.84375H13.1602V3.38086H12.5742V3.91797H12.0371V4.55273H9.74219V5.08984H9.15625V6.21289H9.74219V7.38477H10.2793V8.50781H10.8652V9.67969H11.4023V10.2656H12.0371V11.3887H12.5742V11.9258H13.1602V13.0977H13.6973V14.2207H14.2344V15.3926H14.8691V15.9297H15.4062V16.5156H15.9922V17.6875H17.7012V16.5156H18.2871V15.9297H18.8242V15.3926H19.4102V14.2207H19.9961V13.0977H20.582V11.9258H21.1191V10.8027H21.7051V9.67969H22.2422V9.14258H22.7793V6.84766H23.4141V6.21289H22.7793V5.08984H21.1191V4.55273H19.9961V3.91797H19.4102V2.25781H19.9961V1.7207H28.541V1.08594H30.25V1.7207H31.3242V3.91797H30.7871V4.55273H30.25V5.08984H28.541V6.21289H28.0039V6.84766H27.3691V7.38477H26.832V8.50781H26.2461V9.67969H25.709V10.8027H25.0742V11.3887H24.5371V11.9258H23.9512V13.6348H23.4141V14.2207H22.7793V15.3926H22.2422V15.9297H21.7051V17.0527H21.1191V18.2246H20.582V18.8105H19.9961V19.9824H19.4102V21.0566H18.8242V22.8145H18.2871V24.4746H18.8242V33.0195H19.4102V34.1914H24.5371V34.7773H25.709V35.3145H26.2461V36.4863H25.709V37.6094H23.9512V38.1465H22.7793V37.6094H18.8242V38.1465H14.2344V37.6094H9.15625V36.4863H8.61914V35.9492H9.15625V34.7773H10.2793V34.1914H13.1602V33.6543H13.6973V33.0195H14.2344V22.1797H13.6973V21.0566H13.1602V20.5195H12.5742V18.8105H12.0371V18.2246H11.4023V17.6875H10.8652V16.5156H10.2793V15.9297H9.74219V14.7578H9.15625V13.6348H8.61914V13.0977H7.98438V11.9258H7.44727V10.8027H6.86133V10.2656H6.32422V9.14258H5.68945V8.50781H5.15234V7.38477H4.61523V6.84766H4.0293V5.67578H3.49219V5.08984H1.19727V4.55273H0.0742188V1.7207H1.19727V1.08594ZM47.1934 31.1641H47.7793V26.7695H47.1934V26.2324H39.5762V26.7695H37.8672V27.3555H36.793V27.8926H35.7188V28.4785H35.1328V28.9668H34.6445V30.0898H34.0586V32.2871H34.6445V33.4102H35.7188V33.8984H36.793V34.4844H40.0645V35.0215H40.6504V34.4844H43.3848V33.8984H44.5078V33.4102H45.582V32.8242H46.7051V32.2871H47.1934V31.1641ZM40.6504 12.5117H48.3164V13.0977H49.3906V13.5859H50.5137V14.123H51.0996V14.709H51.6367V15.2461H52.2227V16.3203H52.7109V22.375H52.2227V33.8984H54.3223V33.4102H56.0312V33.8984H56.5195V34.4844H57.1055V36.0957H56.5195V36.6816H54.3223V37.2188H52.7109V37.8047H48.9023V37.2188H48.3164V36.6816H47.1934V36.0957H46.1191V36.6816H44.5078V37.2188H42.2617V37.8047H34.6445V37.2188H33.5215V36.6816H32.4473V36.0957H31.3242V35.6074H30.7383V34.4844H30.25V33.4102H29.6641V29.5527H30.25V28.4785H30.7383V27.3555H31.3242V26.7695H31.8613V26.2324H32.9355V25.6465H34.0586V25.1582H35.1328V24.5723H36.793V24.0352H38.9902V23.4492H42.2617V22.9609H42.8477V23.4492H45.582V22.9609H47.1934V22.375H47.7793V21.8379H48.3164V17.4434H47.7793V16.9062H47.1934V16.3203H46.7051V15.7832H45.582V15.2461H41.1875V15.7832H40.0645V16.3203H38.9902V16.9062H38.4531V17.4434H37.8672V19.1035H37.3789V19.6406H36.793V20.2266H34.0586V19.6406H33.5215V19.1035H32.9355V16.3203H33.5215V15.2461H34.6445V14.709H35.7188V14.123H36.793V13.5859H37.8672V13.0977H40.6504V12.5117ZM76.7832 31.1641H77.3691V26.7695H76.7832V26.2324H69.166V26.7695H67.457V27.3555H66.3828V27.8926H65.3086V28.4785H64.7227V28.9668H64.2344V30.0898H63.6484V32.2871H64.2344V33.4102H65.3086V33.8984H66.3828V34.4844H69.6543V35.0215H70.2402V34.4844H72.9746V33.8984H74.0977V33.4102H75.1719V32.8242H76.2949V32.2871H76.7832V31.1641ZM70.2402 12.5117H77.9062V13.0977H78.9805V13.5859H80.1035V14.123H80.6895V14.709H81.2266V15.2461H81.8125V16.3203H82.3008V22.375H81.8125V33.8984H83.9121V33.4102H85.6211V33.8984H86.1094V34.4844H86.6953V36.0957H86.1094V36.6816H83.9121V37.2188H82.3008V37.8047H78.4922V37.2188H77.9062V36.6816H76.7832V36.0957H75.709V36.6816H74.0977V37.2188H71.8516V37.8047H64.2344V37.2188H63.1113V36.6816H62.0371V36.0957H60.9141V35.6074H60.3281V34.4844H59.8398V33.4102H59.2539V29.5527H59.8398V28.4785H60.3281V27.3555H60.9141V26.7695H61.4512V26.2324H62.5254V25.6465H63.6484V25.1582H64.7227V24.5723H66.3828V24.0352H68.5801V23.4492H71.8516V22.9609H72.4375V23.4492H75.1719V22.9609H76.7832V22.375H77.3691V21.8379H77.9062V17.4434H77.3691V16.9062H76.7832V16.3203H76.2949V15.7832H75.1719V15.2461H70.7773V15.7832H69.6543V16.3203H68.5801V16.9062H68.043V17.4434H67.457V19.1035H66.9688V19.6406H66.3828V20.2266H63.6484V19.6406H63.1113V19.1035H62.5254V16.3203H63.1113V15.2461H64.2344V14.709H65.3086V14.123H66.3828V13.5859H67.457V13.0977H70.2402V12.5117ZM93.2383 27.3555H93.7754V29.5527H94.3613V30.5781H94.8984V31.1641H95.4844V32.2871H95.9727V32.8242H96.5586V33.4102H97.0957V33.8984H98.1699V34.4844H102.027V35.0215H103.102V34.4844H105.299V33.8984H106.422V33.4102H107.008V32.8242H107.496V27.8926H108.082V20.2266H107.496V18.0293H106.422V17.4434H105.299V16.9062H103.688V16.3203H99.8789V16.9062H98.1699V17.4434H97.0957V18.0293H95.9727V19.1035H95.4844V19.6406H94.8984V20.2266H94.3613V21.3008H93.7754V22.9609H93.2383V27.3555ZM109.205 0.451172H111.939V2.0625H112.428V4.25977H111.939V6.45703H112.428V8.06836H111.939V32.2871H112.428V33.4102H115.211V33.8984H116.334V36.0957H115.748V36.6816H113.551V37.2188H111.939V37.8047H108.619V37.2188H105.885V37.8047H103.688V38.3418H96.5586V37.8047H95.4844V37.2188H94.3613V36.6816H93.7754V36.0957H92.75V35.6074H92.1641V35.0215H91.627V34.4844H91.041V33.4102H90.5527V32.8242H89.9668V31.7012H89.4297V29.5527H88.8438V22.9609H89.4297V21.3008H89.9668V19.6406H90.5527V18.5176H91.041V18.0293H91.627V17.4434H92.1641V16.9062H92.75V16.3203H93.2383V15.7832H93.7754V15.2461H94.8984V14.709H95.9727V14.123H97.0957V13.5859H105.885V14.123H107.496V12.5117H108.082V11.3887H107.496V8.06836H108.082V6.45703H107.496V5.38281H105.885V4.8457H103.102V2.64844H103.688V2.0625H104.811V1.52539H107.496V0.939453H109.205V0.451172Z"/>
</mask>
<path d="M1.19727 1.08594H5.15234V1.7207H6.86133V1.08594H9.74219V1.7207H12.5742V2.84375H13.1602V3.38086H12.5742V3.91797H12.0371V4.55273H9.74219V5.08984H9.15625V6.21289H9.74219V7.38477H10.2793V8.50781H10.8652V9.67969H11.4023V10.2656H12.0371V11.3887H12.5742V11.9258H13.1602V13.0977H13.6973V14.2207H14.2344V15.3926H14.8691V15.9297H15.4062V16.5156H15.9922V17.6875H17.7012V16.5156H18.2871V15.9297H18.8242V15.3926H19.4102V14.2207H19.9961V13.0977H20.582V11.9258H21.1191V10.8027H21.7051V9.67969H22.2422V9.14258H22.7793V6.84766H23.4141V6.21289H22.7793V5.08984H21.1191V4.55273H19.9961V3.91797H19.4102V2.25781H19.9961V1.7207H28.541V1.08594H30.25V1.7207H31.3242V3.91797H30.7871V4.55273H30.25V5.08984H28.541V6.21289H28.0039V6.84766H27.3691V7.38477H26.832V8.50781H26.2461V9.67969H25.709V10.8027H25.0742V11.3887H24.5371V11.9258H23.9512V13.6348H23.4141V14.2207H22.7793V15.3926H22.2422V15.9297H21.7051V17.0527H21.1191V18.2246H20.582V18.8105H19.9961V19.9824H19.4102V21.0566H18.8242V22.8145H18.2871V24.4746H18.8242V33.0195H19.4102V34.1914H24.5371V34.7773H25.709V35.3145H26.2461V36.4863H25.709V37.6094H23.9512V38.1465H22.7793V37.6094H18.8242V38.1465H14.2344V37.6094H9.15625V36.4863H8.61914V35.9492H9.15625V34.7773H10.2793V34.1914H13.1602V33.6543H13.6973V33.0195H14.2344V22.1797H13.6973V21.0566H13.1602V20.5195H12.5742V18.8105H12.0371V18.2246H11.4023V17.6875H10.8652V16.5156H10.2793V15.9297H9.74219V14.7578H9.15625V13.6348H8.61914V13.0977H7.98438V11.9258H7.44727V10.8027H6.86133V10.2656H6.32422V9.14258H5.68945V8.50781H5.15234V7.38477H4.61523V6.84766H4.0293V5.67578H3.49219V5.08984H1.19727V4.55273H0.0742188V1.7207H1.19727V1.08594ZM47.1934 31.1641H47.7793V26.7695H47.1934V26.2324H39.5762V26.7695H37.8672V27.3555H36.793V27.8926H35.7188V28.4785H35.1328V28.9668H34.6445V30.0898H34.0586V32.2871H34.6445V33.4102H35.7188V33.8984H36.793V34.4844H40.0645V35.0215H40.6504V34.4844H43.3848V33.8984H44.5078V33.4102H45.582V32.8242H46.7051V32.2871H47.1934V31.1641ZM40.6504 12.5117H48.3164V13.0977H49.3906V13.5859H50.5137V14.123H51.0996V14.709H51.6367V15.2461H52.2227V16.3203H52.7109V22.375H52.2227V33.8984H54.3223V33.4102H56.0312V33.8984H56.5195V34.4844H57.1055V36.0957H56.5195V36.6816H54.3223V37.2188H52.7109V37.8047H48.9023V37.2188H48.3164V36.6816H47.1934V36.0957H46.1191V36.6816H44.5078V37.2188H42.2617V37.8047H34.6445V37.2188H33.5215V36.6816H32.4473V36.0957H31.3242V35.6074H30.7383V34.4844H30.25V33.4102H29.6641V29.5527H30.25V28.4785H30.7383V27.3555H31.3242V26.7695H31.8613V26.2324H32.9355V25.6465H34.0586V25.1582H35.1328V24.5723H36.793V24.0352H38.9902V23.4492H42.2617V22.9609H42.8477V23.4492H45.582V22.9609H47.1934V22.375H47.7793V21.8379H48.3164V17.4434H47.7793V16.9062H47.1934V16.3203H46.7051V15.7832H45.582V15.2461H41.1875V15.7832H40.0645V16.3203H38.9902V16.9062H38.4531V17.4434H37.8672V19.1035H37.3789V19.6406H36.793V20.2266H34.0586V19.6406H33.5215V19.1035H32.9355V16.3203H33.5215V15.2461H34.6445V14.709H35.7188V14.123H36.793V13.5859H37.8672V13.0977H40.6504V12.5117ZM76.7832 31.1641H77.3691V26.7695H76.7832V26.2324H69.166V26.7695H67.457V27.3555H66.3828V27.8926H65.3086V28.4785H64.7227V28.9668H64.2344V30.0898H63.6484V32.2871H64.2344V33.4102H65.3086V33.8984H66.3828V34.4844H69.6543V35.0215H70.2402V34.4844H72.9746V33.8984H74.0977V33.4102H75.1719V32.8242H76.2949V32.2871H76.7832V31.1641ZM70.2402 12.5117H77.9062V13.0977H78.9805V13.5859H80.1035V14.123H80.6895V14.709H81.2266V15.2461H81.8125V16.3203H82.3008V22.375H81.8125V33.8984H83.9121V33.4102H85.6211V33.8984H86.1094V34.4844H86.6953V36.0957H86.1094V36.6816H83.9121V37.2188H82.3008V37.8047H78.4922V37.2188H77.9062V36.6816H76.7832V36.0957H75.709V36.6816H74.0977V37.2188H71.8516V37.8047H64.2344V37.2188H63.1113V36.6816H62.0371V36.0957H60.9141V35.6074H60.3281V34.4844H59.8398V33.4102H59.2539V29.5527H59.8398V28.4785H60.3281V27.3555H60.9141V26.7695H61.4512V26.2324H62.5254V25.6465H63.6484V25.1582H64.7227V24.5723H66.3828V24.0352H68.5801V23.4492H71.8516V22.9609H72.4375V23.4492H75.1719V22.9609H76.7832V22.375H77.3691V21.8379H77.9062V17.4434H77.3691V16.9062H76.7832V16.3203H76.2949V15.7832H75.1719V15.2461H70.7773V15.7832H69.6543V16.3203H68.5801V16.9062H68.043V17.4434H67.457V19.1035H66.9688V19.6406H66.3828V20.2266H63.6484V19.6406H63.1113V19.1035H62.5254V16.3203H63.1113V15.2461H64.2344V14.709H65.3086V14.123H66.3828V13.5859H67.457V13.0977H70.2402V12.5117ZM93.2383 27.3555H93.7754V29.5527H94.3613V30.5781H94.8984V31.1641H95.4844V32.2871H95.9727V32.8242H96.5586V33.4102H97.0957V33.8984H98.1699V34.4844H102.027V35.0215H103.102V34.4844H105.299V33.8984H106.422V33.4102H107.008V32.8242H107.496V27.8926H108.082V20.2266H107.496V18.0293H106.422V17.4434H105.299V16.9062H103.688V16.3203H99.8789V16.9062H98.1699V17.4434H97.0957V18.0293H95.9727V19.1035H95.4844V19.6406H94.8984V20.2266H94.3613V21.3008H93.7754V22.9609H93.2383V27.3555ZM109.205 0.451172H111.939V2.0625H112.428V4.25977H111.939V6.45703H112.428V8.06836H111.939V32.2871H112.428V33.4102H115.211V33.8984H116.334V36.0957H115.748V36.6816H113.551V37.2188H111.939V37.8047H108.619V37.2188H105.885V37.8047H103.688V38.3418H96.5586V37.8047H95.4844V37.2188H94.3613V36.6816H93.7754V36.0957H92.75V35.6074H92.1641V35.0215H91.627V34.4844H91.041V33.4102H90.5527V32.8242H89.9668V31.7012H89.4297V29.5527H88.8438V22.9609H89.4297V21.3008H89.9668V19.6406H90.5527V18.5176H91.041V18.0293H91.627V17.4434H92.1641V16.9062H92.75V16.3203H93.2383V15.7832H93.7754V15.2461H94.8984V14.709H95.9727V14.123H97.0957V13.5859H105.885V14.123H107.496V12.5117H108.082V11.3887H107.496V8.06836H108.082V6.45703H107.496V5.38281H105.885V4.8457H103.102V2.64844H103.688V2.0625H104.811V1.52539H107.496V0.939453H109.205V0.451172Z" fill="black"/>
<path d="M1.19727 1.08594V0.0859375H0.197266V1.08594H1.19727ZM5.15234 1.08594H6.15234V0.0859375H5.15234V1.08594ZM5.15234 1.7207H4.15234V2.7207H5.15234V1.7207ZM6.86133 1.7207V2.7207H7.86133V1.7207H6.86133ZM6.86133 1.08594V0.0859375H5.86133V1.08594H6.86133ZM9.74219 1.08594H10.7422V0.0859375H9.74219V1.08594ZM9.74219 1.7207H8.74219V2.7207H9.74219V1.7207ZM12.5742 1.7207H13.5742V0.720703H12.5742V1.7207ZM12.5742 2.84375H11.5742V3.84375H12.5742V2.84375ZM13.1602 2.84375H14.1602V1.84375H13.1602V2.84375ZM13.1602 3.38086V4.38086H14.1602V3.38086H13.1602ZM12.5742 3.38086V2.38086H11.5742V3.38086H12.5742ZM12.5742 3.91797V4.91797H13.5742V3.91797H12.5742ZM12.0371 3.91797V2.91797H11.0371V3.91797H12.0371ZM12.0371 4.55273V5.55273H13.0371V4.55273H12.0371ZM9.74219 4.55273V3.55273H8.74219V4.55273H9.74219ZM9.74219 5.08984V6.08984H10.7422V5.08984H9.74219ZM9.15625 5.08984V4.08984H8.15625V5.08984H9.15625ZM9.15625 6.21289H8.15625V7.21289H9.15625V6.21289ZM9.74219 6.21289H10.7422V5.21289H9.74219V6.21289ZM9.74219 7.38477H8.74219V8.38477H9.74219V7.38477ZM10.2793 7.38477H11.2793V6.38477H10.2793V7.38477ZM10.2793 8.50781H9.2793V9.50781H10.2793V8.50781ZM10.8652 8.50781H11.8652V7.50781H10.8652V8.50781ZM10.8652 9.67969H9.86523V10.6797H10.8652V9.67969ZM11.4023 9.67969H12.4023V8.67969H11.4023V9.67969ZM11.4023 10.2656H10.4023V11.2656H11.4023V10.2656ZM12.0371 10.2656H13.0371V9.26562H12.0371V10.2656ZM12.0371 11.3887H11.0371V12.3887H12.0371V11.3887ZM12.5742 11.3887H13.5742V10.3887H12.5742V11.3887ZM12.5742 11.9258H11.5742V12.9258H12.5742V11.9258ZM13.1602 11.9258H14.1602V10.9258H13.1602V11.9258ZM13.1602 13.0977H12.1602V14.0977H13.1602V13.0977ZM13.6973 13.0977H14.6973V12.0977H13.6973V13.0977ZM13.6973 14.2207H12.6973V15.2207H13.6973V14.2207ZM14.2344 14.2207H15.2344V13.2207H14.2344V14.2207ZM14.2344 15.3926H13.2344V16.3926H14.2344V15.3926ZM14.8691 15.3926H15.8691V14.3926H14.8691V15.3926ZM14.8691 15.9297H13.8691V16.9297H14.8691V15.9297ZM15.4062 15.9297H16.4062V14.9297H15.4062V15.9297ZM15.4062 16.5156H14.4062V17.5156H15.4062V16.5156ZM15.9922 16.5156H16.9922V15.5156H15.9922V16.5156ZM15.9922 17.6875H14.9922V18.6875H15.9922V17.6875ZM17.7012 17.6875V18.6875H18.7012V17.6875H17.7012ZM17.7012 16.5156V15.5156H16.7012V16.5156H17.7012ZM18.2871 16.5156V17.5156H19.2871V16.5156H18.2871ZM18.2871 15.9297V14.9297H17.2871V15.9297H18.2871ZM18.8242 15.9297V16.9297H19.8242V15.9297H18.8242ZM18.8242 15.3926V14.3926H17.8242V15.3926H18.8242ZM19.4102 15.3926V16.3926H20.4102V15.3926H19.4102ZM19.4102 14.2207V13.2207H18.4102V14.2207H19.4102ZM19.9961 14.2207V15.2207H20.9961V14.2207H19.9961ZM19.9961 13.0977V12.0977H18.9961V13.0977H19.9961ZM20.582 13.0977V14.0977H21.582V13.0977H20.582ZM20.582 11.9258V10.9258H19.582V11.9258H20.582ZM21.1191 11.9258V12.9258H22.1191V11.9258H21.1191ZM21.1191 10.8027V9.80273H20.1191V10.8027H21.1191ZM21.7051 10.8027V11.8027H22.7051V10.8027H21.7051ZM21.7051 9.67969V8.67969H20.7051V9.67969H21.7051ZM22.2422 9.67969V10.6797H23.2422V9.67969H22.2422ZM22.2422 9.14258V8.14258H21.2422V9.14258H22.2422ZM22.7793 9.14258V10.1426H23.7793V9.14258H22.7793ZM22.7793 6.84766V5.84766H21.7793V6.84766H22.7793ZM23.4141 6.84766V7.84766H24.4141V6.84766H23.4141ZM23.4141 6.21289H24.4141V5.21289H23.4141V6.21289ZM22.7793 6.21289H21.7793V7.21289H22.7793V6.21289ZM22.7793 5.08984H23.7793V4.08984H22.7793V5.08984ZM21.1191 5.08984H20.1191V6.08984H21.1191V5.08984ZM21.1191 4.55273H22.1191V3.55273H21.1191V4.55273ZM19.9961 4.55273H18.9961V5.55273H19.9961V4.55273ZM19.9961 3.91797H20.9961V2.91797H19.9961V3.91797ZM19.4102 3.91797H18.4102V4.91797H19.4102V3.91797ZM19.4102 2.25781V1.25781H18.4102V2.25781H19.4102ZM19.9961 2.25781V3.25781H20.9961V2.25781H19.9961ZM19.9961 1.7207V0.720703H18.9961V1.7207H19.9961ZM28.541 1.7207V2.7207H29.541V1.7207H28.541ZM28.541 1.08594V0.0859375H27.541V1.08594H28.541ZM30.25 1.08594H31.25V0.0859375H30.25V1.08594ZM30.25 1.7207H29.25V2.7207H30.25V1.7207ZM31.3242 1.7207H32.3242V0.720703H31.3242V1.7207ZM31.3242 3.91797V4.91797H32.3242V3.91797H31.3242ZM30.7871 3.91797V2.91797H29.7871V3.91797H30.7871ZM30.7871 4.55273V5.55273H31.7871V4.55273H30.7871ZM30.25 4.55273V3.55273H29.25V4.55273H30.25ZM30.25 5.08984V6.08984H31.25V5.08984H30.25ZM28.541 5.08984V4.08984H27.541V5.08984H28.541ZM28.541 6.21289V7.21289H29.541V6.21289H28.541ZM28.0039 6.21289V5.21289H27.0039V6.21289H28.0039ZM28.0039 6.84766V7.84766H29.0039V6.84766H28.0039ZM27.3691 6.84766V5.84766H26.3691V6.84766H27.3691ZM27.3691 7.38477V8.38477H28.3691V7.38477H27.3691ZM26.832 7.38477V6.38477H25.832V7.38477H26.832ZM26.832 8.50781V9.50781H27.832V8.50781H26.832ZM26.2461 8.50781V7.50781H25.2461V8.50781H26.2461ZM26.2461 9.67969V10.6797H27.2461V9.67969H26.2461ZM25.709 9.67969V8.67969H24.709V9.67969H25.709ZM25.709 10.8027V11.8027H26.709V10.8027H25.709ZM25.0742 10.8027V9.80273H24.0742V10.8027H25.0742ZM25.0742 11.3887V12.3887H26.0742V11.3887H25.0742ZM24.5371 11.3887V10.3887H23.5371V11.3887H24.5371ZM24.5371 11.9258V12.9258H25.5371V11.9258H24.5371ZM23.9512 11.9258V10.9258H22.9512V11.9258H23.9512ZM23.9512 13.6348V14.6348H24.9512V13.6348H23.9512ZM23.4141 13.6348V12.6348H22.4141V13.6348H23.4141ZM23.4141 14.2207V15.2207H24.4141V14.2207H23.4141ZM22.7793 14.2207V13.2207H21.7793V14.2207H22.7793ZM22.7793 15.3926V16.3926H23.7793V15.3926H22.7793ZM22.2422 15.3926V14.3926H21.2422V15.3926H22.2422ZM22.2422 15.9297V16.9297H23.2422V15.9297H22.2422ZM21.7051 15.9297V14.9297H20.7051V15.9297H21.7051ZM21.7051 17.0527V18.0527H22.7051V17.0527H21.7051ZM21.1191 17.0527V16.0527H20.1191V17.0527H21.1191ZM21.1191 18.2246V19.2246H22.1191V18.2246H21.1191ZM20.582 18.2246V17.2246H19.582V18.2246H20.582ZM20.582 18.8105V19.8105H21.582V18.8105H20.582ZM19.9961 18.8105V17.8105H18.9961V18.8105H19.9961ZM19.9961 19.9824V20.9824H20.9961V19.9824H19.9961ZM19.4102 19.9824V18.9824H18.4102V19.9824H19.4102ZM19.4102 21.0566V22.0566H20.4102V21.0566H19.4102ZM18.8242 21.0566V20.0566H17.8242V21.0566H18.8242ZM18.8242 22.8145V23.8145H19.8242V22.8145H18.8242ZM18.2871 22.8145V21.8145H17.2871V22.8145H18.2871ZM18.2871 24.4746H17.2871V25.4746H18.2871V24.4746ZM18.8242 24.4746H19.8242V23.4746H18.8242V24.4746ZM18.8242 33.0195H17.8242V34.0195H18.8242V33.0195ZM19.4102 33.0195H20.4102V32.0195H19.4102V33.0195ZM19.4102 34.1914H18.4102V35.1914H19.4102V34.1914ZM24.5371 34.1914H25.5371V33.1914H24.5371V34.1914ZM24.5371 34.7773H23.5371V35.7773H24.5371V34.7773ZM25.709 34.7773H26.709V33.7773H25.709V34.7773ZM25.709 35.3145H24.709V36.3145H25.709V35.3145ZM26.2461 35.3145H27.2461V34.3145H26.2461V35.3145ZM26.2461 36.4863V37.4863H27.2461V36.4863H26.2461ZM25.709 36.4863V35.4863H24.709V36.4863H25.709ZM25.709 37.6094V38.6094H26.709V37.6094H25.709ZM23.9512 37.6094V36.6094H22.9512V37.6094H23.9512ZM23.9512 38.1465V39.1465H24.9512V38.1465H23.9512ZM22.7793 38.1465H21.7793V39.1465H22.7793V38.1465ZM22.7793 37.6094H23.7793V36.6094H22.7793V37.6094ZM18.8242 37.6094V36.6094H17.8242V37.6094H18.8242ZM18.8242 38.1465V39.1465H19.8242V38.1465H18.8242ZM14.2344 38.1465H13.2344V39.1465H14.2344V38.1465ZM14.2344 37.6094H15.2344V36.6094H14.2344V37.6094ZM9.15625 37.6094H8.15625V38.6094H9.15625V37.6094ZM9.15625 36.4863H10.1562V35.4863H9.15625V36.4863ZM8.61914 36.4863H7.61914V37.4863H8.61914V36.4863ZM8.61914 35.9492V34.9492H7.61914V35.9492H8.61914ZM9.15625 35.9492V36.9492H10.1562V35.9492H9.15625ZM9.15625 34.7773V33.7773H8.15625V34.7773H9.15625ZM10.2793 34.7773V35.7773H11.2793V34.7773H10.2793ZM10.2793 34.1914V33.1914H9.2793V34.1914H10.2793ZM13.1602 34.1914V35.1914H14.1602V34.1914H13.1602ZM13.1602 33.6543V32.6543H12.1602V33.6543H13.1602ZM13.6973 33.6543V34.6543H14.6973V33.6543H13.6973ZM13.6973 33.0195V32.0195H12.6973V33.0195H13.6973ZM14.2344 33.0195V34.0195H15.2344V33.0195H14.2344ZM14.2344 22.1797H15.2344V21.1797H14.2344V22.1797ZM13.6973 22.1797H12.6973V23.1797H13.6973V22.1797ZM13.6973 21.0566H14.6973V20.0566H13.6973V21.0566ZM13.1602 21.0566H12.1602V22.0566H13.1602V21.0566ZM13.1602 20.5195H14.1602V19.5195H13.1602V20.5195ZM12.5742 20.5195H11.5742V21.5195H12.5742V20.5195ZM12.5742 18.8105H13.5742V17.8105H12.5742V18.8105ZM12.0371 18.8105H11.0371V19.8105H12.0371V18.8105ZM12.0371 18.2246H13.0371V17.2246H12.0371V18.2246ZM11.4023 18.2246H10.4023V19.2246H11.4023V18.2246ZM11.4023 17.6875H12.4023V16.6875H11.4023V17.6875ZM10.8652 17.6875H9.86523V18.6875H10.8652V17.6875ZM10.8652 16.5156H11.8652V15.5156H10.8652V16.5156ZM10.2793 16.5156H9.2793V17.5156H10.2793V16.5156ZM10.2793 15.9297H11.2793V14.9297H10.2793V15.9297ZM9.74219 15.9297H8.74219V16.9297H9.74219V15.9297ZM9.74219 14.7578H10.7422V13.7578H9.74219V14.7578ZM9.15625 14.7578H8.15625V15.7578H9.15625V14.7578ZM9.15625 13.6348H10.1562V12.6348H9.15625V13.6348ZM8.61914 13.6348H7.61914V14.6348H8.61914V13.6348ZM8.61914 13.0977H9.61914V12.0977H8.61914V13.0977ZM7.98438 13.0977H6.98438V14.0977H7.98438V13.0977ZM7.98438 11.9258H8.98438V10.9258H7.98438V11.9258ZM7.44727 11.9258H6.44727V12.9258H7.44727V11.9258ZM7.44727 10.8027H8.44727V9.80273H7.44727V10.8027ZM6.86133 10.8027H5.86133V11.8027H6.86133V10.8027ZM6.86133 10.2656H7.86133V9.26562H6.86133V10.2656ZM6.32422 10.2656H5.32422V11.2656H6.32422V10.2656ZM6.32422 9.14258H7.32422V8.14258H6.32422V9.14258ZM5.68945 9.14258H4.68945V10.1426H5.68945V9.14258ZM5.68945 8.50781H6.68945V7.50781H5.68945V8.50781ZM5.15234 8.50781H4.15234V9.50781H5.15234V8.50781ZM5.15234 7.38477H6.15234V6.38477H5.15234V7.38477ZM4.61523 7.38477H3.61523V8.38477H4.61523V7.38477ZM4.61523 6.84766H5.61523V5.84766H4.61523V6.84766ZM4.0293 6.84766H3.0293V7.84766H4.0293V6.84766ZM4.0293 5.67578H5.0293V4.67578H4.0293V5.67578ZM3.49219 5.67578H2.49219V6.67578H3.49219V5.67578ZM3.49219 5.08984H4.49219V4.08984H3.49219V5.08984ZM1.19727 5.08984H0.197266V6.08984H1.19727V5.08984ZM1.19727 4.55273H2.19727V3.55273H1.19727V4.55273ZM0.0742188 4.55273H-0.925781V5.55273H0.0742188V4.55273ZM0.0742188 1.7207V0.720703H-0.925781V1.7207H0.0742188ZM1.19727 1.7207V2.7207H2.19727V1.7207H1.19727ZM1.19727 2.08594H5.15234V0.0859375H1.19727V2.08594ZM4.15234 1.08594V1.7207H6.15234V1.08594H4.15234ZM5.15234 2.7207H6.86133V0.720703H5.15234V2.7207ZM7.86133 1.7207V1.08594H5.86133V1.7207H7.86133ZM6.86133 2.08594H9.74219V0.0859375H6.86133V2.08594ZM8.74219 1.08594V1.7207H10.7422V1.08594H8.74219ZM9.74219 2.7207H12.5742V0.720703H9.74219V2.7207ZM11.5742 1.7207V2.84375H13.5742V1.7207H11.5742ZM12.5742 3.84375H13.1602V1.84375H12.5742V3.84375ZM12.1602 2.84375V3.38086H14.1602V2.84375H12.1602ZM13.1602 2.38086H12.5742V4.38086H13.1602V2.38086ZM11.5742 3.38086V3.91797H13.5742V3.38086H11.5742ZM12.5742 2.91797H12.0371V4.91797H12.5742V2.91797ZM11.0371 3.91797V4.55273H13.0371V3.91797H11.0371ZM12.0371 3.55273H9.74219V5.55273H12.0371V3.55273ZM8.74219 4.55273V5.08984H10.7422V4.55273H8.74219ZM9.74219 4.08984H9.15625V6.08984H9.74219V4.08984ZM8.15625 5.08984V6.21289H10.1562V5.08984H8.15625ZM9.15625 7.21289H9.74219V5.21289H9.15625V7.21289ZM8.74219 6.21289V7.38477H10.7422V6.21289H8.74219ZM9.74219 8.38477H10.2793V6.38477H9.74219V8.38477ZM9.2793 7.38477V8.50781H11.2793V7.38477H9.2793ZM10.2793 9.50781H10.8652V7.50781H10.2793V9.50781ZM9.86523 8.50781V9.67969H11.8652V8.50781H9.86523ZM10.8652 10.6797H11.4023V8.67969H10.8652V10.6797ZM10.4023 9.67969V10.2656H12.4023V9.67969H10.4023ZM11.4023 11.2656H12.0371V9.26562H11.4023V11.2656ZM11.0371 10.2656V11.3887H13.0371V10.2656H11.0371ZM12.0371 12.3887H12.5742V10.3887H12.0371V12.3887ZM11.5742 11.3887V11.9258H13.5742V11.3887H11.5742ZM12.5742 12.9258H13.1602V10.9258H12.5742V12.9258ZM12.1602 11.9258V13.0977H14.1602V11.9258H12.1602ZM13.1602 14.0977H13.6973V12.0977H13.1602V14.0977ZM12.6973 13.0977V14.2207H14.6973V13.0977H12.6973ZM13.6973 15.2207H14.2344V13.2207H13.6973V15.2207ZM13.2344 14.2207V15.3926H15.2344V14.2207H13.2344ZM14.2344 16.3926H14.8691V14.3926H14.2344V16.3926ZM13.8691 15.3926V15.9297H15.8691V15.3926H13.8691ZM14.8691 16.9297H15.4062V14.9297H14.8691V16.9297ZM14.4062 15.9297V16.5156H16.4062V15.9297H14.4062ZM15.4062 17.5156H15.9922V15.5156H15.4062V17.5156ZM14.9922 16.5156V17.6875H16.9922V16.5156H14.9922ZM15.9922 18.6875H17.7012V16.6875H15.9922V18.6875ZM18.7012 17.6875V16.5156H16.7012V17.6875H18.7012ZM17.7012 17.5156H18.2871V15.5156H17.7012V17.5156ZM19.2871 16.5156V15.9297H17.2871V16.5156H19.2871ZM18.2871 16.9297H18.8242V14.9297H18.2871V16.9297ZM19.8242 15.9297V15.3926H17.8242V15.9297H19.8242ZM18.8242 16.3926H19.4102V14.3926H18.8242V16.3926ZM20.4102 15.3926V14.2207H18.4102V15.3926H20.4102ZM19.4102 15.2207H19.9961V13.2207H19.4102V15.2207ZM20.9961 14.2207V13.0977H18.9961V14.2207H20.9961ZM19.9961 14.0977H20.582V12.0977H19.9961V14.0977ZM21.582 13.0977V11.9258H19.582V13.0977H21.582ZM20.582 12.9258H21.1191V10.9258H20.582V12.9258ZM22.1191 11.9258V10.8027H20.1191V11.9258H22.1191ZM21.1191 11.8027H21.7051V9.80273H21.1191V11.8027ZM22.7051 10.8027V9.67969H20.7051V10.8027H22.7051ZM21.7051 10.6797H22.2422V8.67969H21.7051V10.6797ZM23.2422 9.67969V9.14258H21.2422V9.67969H23.2422ZM22.2422 10.1426H22.7793V8.14258H22.2422V10.1426ZM23.7793 9.14258V6.84766H21.7793V9.14258H23.7793ZM22.7793 7.84766H23.4141V5.84766H22.7793V7.84766ZM24.4141 6.84766V6.21289H22.4141V6.84766H24.4141ZM23.4141 5.21289H22.7793V7.21289H23.4141V5.21289ZM23.7793 6.21289V5.08984H21.7793V6.21289H23.7793ZM22.7793 4.08984H21.1191V6.08984H22.7793V4.08984ZM22.1191 5.08984V4.55273H20.1191V5.08984H22.1191ZM21.1191 3.55273H19.9961V5.55273H21.1191V3.55273ZM20.9961 4.55273V3.91797H18.9961V4.55273H20.9961ZM19.9961 2.91797H19.4102V4.91797H19.9961V2.91797ZM20.4102 3.91797V2.25781H18.4102V3.91797H20.4102ZM19.4102 3.25781H19.9961V1.25781H19.4102V3.25781ZM20.9961 2.25781V1.7207H18.9961V2.25781H20.9961ZM19.9961 2.7207H28.541V0.720703H19.9961V2.7207ZM29.541 1.7207V1.08594H27.541V1.7207H29.541ZM28.541 2.08594H30.25V0.0859375H28.541V2.08594ZM29.25 1.08594V1.7207H31.25V1.08594H29.25ZM30.25 2.7207H31.3242V0.720703H30.25V2.7207ZM30.3242 1.7207V3.91797H32.3242V1.7207H30.3242ZM31.3242 2.91797H30.7871V4.91797H31.3242V2.91797ZM29.7871 3.91797V4.55273H31.7871V3.91797H29.7871ZM30.7871 3.55273H30.25V5.55273H30.7871V3.55273ZM29.25 4.55273V5.08984H31.25V4.55273H29.25ZM30.25 4.08984H28.541V6.08984H30.25V4.08984ZM27.541 5.08984V6.21289H29.541V5.08984H27.541ZM28.541 5.21289H28.0039V7.21289H28.541V5.21289ZM27.0039 6.21289V6.84766H29.0039V6.21289H27.0039ZM28.0039 5.84766H27.3691V7.84766H28.0039V5.84766ZM26.3691 6.84766V7.38477H28.3691V6.84766H26.3691ZM27.3691 6.38477H26.832V8.38477H27.3691V6.38477ZM25.832 7.38477V8.50781H27.832V7.38477H25.832ZM26.832 7.50781H26.2461V9.50781H26.832V7.50781ZM25.2461 8.50781V9.67969H27.2461V8.50781H25.2461ZM26.2461 8.67969H25.709V10.6797H26.2461V8.67969ZM24.709 9.67969V10.8027H26.709V9.67969H24.709ZM25.709 9.80273H25.0742V11.8027H25.709V9.80273ZM24.0742 10.8027V11.3887H26.0742V10.8027H24.0742ZM25.0742 10.3887H24.5371V12.3887H25.0742V10.3887ZM23.5371 11.3887V11.9258H25.5371V11.3887H23.5371ZM24.5371 10.9258H23.9512V12.9258H24.5371V10.9258ZM22.9512 11.9258V13.6348H24.9512V11.9258H22.9512ZM23.9512 12.6348H23.4141V14.6348H23.9512V12.6348ZM22.4141 13.6348V14.2207H24.4141V13.6348H22.4141ZM23.4141 13.2207H22.7793V15.2207H23.4141V13.2207ZM21.7793 14.2207V15.3926H23.7793V14.2207H21.7793ZM22.7793 14.3926H22.2422V16.3926H22.7793V14.3926ZM21.2422 15.3926V15.9297H23.2422V15.3926H21.2422ZM22.2422 14.9297H21.7051V16.9297H22.2422V14.9297ZM20.7051 15.9297V17.0527H22.7051V15.9297H20.7051ZM21.7051 16.0527H21.1191V18.0527H21.7051V16.0527ZM20.1191 17.0527V18.2246H22.1191V17.0527H20.1191ZM21.1191 17.2246H20.582V19.2246H21.1191V17.2246ZM19.582 18.2246V18.8105H21.582V18.2246H19.582ZM20.582 17.8105H19.9961V19.8105H20.582V17.8105ZM18.9961 18.8105V19.9824H20.9961V18.8105H18.9961ZM19.9961 18.9824H19.4102V20.9824H19.9961V18.9824ZM18.4102 19.9824V21.0566H20.4102V19.9824H18.4102ZM19.4102 20.0566H18.8242V22.0566H19.4102V20.0566ZM17.8242 21.0566V22.8145H19.8242V21.0566H17.8242ZM18.8242 21.8145H18.2871V23.8145H18.8242V21.8145ZM17.2871 22.8145V24.4746H19.2871V22.8145H17.2871ZM18.2871 25.4746H18.8242V23.4746H18.2871V25.4746ZM17.8242 24.4746V33.0195H19.8242V24.4746H17.8242ZM18.8242 34.0195H19.4102V32.0195H18.8242V34.0195ZM18.4102 33.0195V34.1914H20.4102V33.0195H18.4102ZM19.4102 35.1914H24.5371V33.1914H19.4102V35.1914ZM23.5371 34.1914V34.7773H25.5371V34.1914H23.5371ZM24.5371 35.7773H25.709V33.7773H24.5371V35.7773ZM24.709 34.7773V35.3145H26.709V34.7773H24.709ZM25.709 36.3145H26.2461V34.3145H25.709V36.3145ZM25.2461 35.3145V36.4863H27.2461V35.3145H25.2461ZM26.2461 35.4863H25.709V37.4863H26.2461V35.4863ZM24.709 36.4863V37.6094H26.709V36.4863H24.709ZM25.709 36.6094H23.9512V38.6094H25.709V36.6094ZM22.9512 37.6094V38.1465H24.9512V37.6094H22.9512ZM23.9512 37.1465H22.7793V39.1465H23.9512V37.1465ZM23.7793 38.1465V37.6094H21.7793V38.1465H23.7793ZM22.7793 36.6094H18.8242V38.6094H22.7793V36.6094ZM17.8242 37.6094V38.1465H19.8242V37.6094H17.8242ZM18.8242 37.1465H14.2344V39.1465H18.8242V37.1465ZM15.2344 38.1465V37.6094H13.2344V38.1465H15.2344ZM14.2344 36.6094H9.15625V38.6094H14.2344V36.6094ZM10.1562 37.6094V36.4863H8.15625V37.6094H10.1562ZM9.15625 35.4863H8.61914V37.4863H9.15625V35.4863ZM9.61914 36.4863V35.9492H7.61914V36.4863H9.61914ZM8.61914 36.9492H9.15625V34.9492H8.61914V36.9492ZM10.1562 35.9492V34.7773H8.15625V35.9492H10.1562ZM9.15625 35.7773H10.2793V33.7773H9.15625V35.7773ZM11.2793 34.7773V34.1914H9.2793V34.7773H11.2793ZM10.2793 35.1914H13.1602V33.1914H10.2793V35.1914ZM14.1602 34.1914V33.6543H12.1602V34.1914H14.1602ZM13.1602 34.6543H13.6973V32.6543H13.1602V34.6543ZM14.6973 33.6543V33.0195H12.6973V33.6543H14.6973ZM13.6973 34.0195H14.2344V32.0195H13.6973V34.0195ZM15.2344 33.0195V22.1797H13.2344V33.0195H15.2344ZM14.2344 21.1797H13.6973V23.1797H14.2344V21.1797ZM14.6973 22.1797V21.0566H12.6973V22.1797H14.6973ZM13.6973 20.0566H13.1602V22.0566H13.6973V20.0566ZM14.1602 21.0566V20.5195H12.1602V21.0566H14.1602ZM13.1602 19.5195H12.5742V21.5195H13.1602V19.5195ZM13.5742 20.5195V18.8105H11.5742V20.5195H13.5742ZM12.5742 17.8105H12.0371V19.8105H12.5742V17.8105ZM13.0371 18.8105V18.2246H11.0371V18.8105H13.0371ZM12.0371 17.2246H11.4023V19.2246H12.0371V17.2246ZM12.4023 18.2246V17.6875H10.4023V18.2246H12.4023ZM11.4023 16.6875H10.8652V18.6875H11.4023V16.6875ZM11.8652 17.6875V16.5156H9.86523V17.6875H11.8652ZM10.8652 15.5156H10.2793V17.5156H10.8652V15.5156ZM11.2793 16.5156V15.9297H9.2793V16.5156H11.2793ZM10.2793 14.9297H9.74219V16.9297H10.2793V14.9297ZM10.7422 15.9297V14.7578H8.74219V15.9297H10.7422ZM9.74219 13.7578H9.15625V15.7578H9.74219V13.7578ZM10.1562 14.7578V13.6348H8.15625V14.7578H10.1562ZM9.15625 12.6348H8.61914V14.6348H9.15625V12.6348ZM9.61914 13.6348V13.0977H7.61914V13.6348H9.61914ZM8.61914 12.0977H7.98438V14.0977H8.61914V12.0977ZM8.98438 13.0977V11.9258H6.98438V13.0977H8.98438ZM7.98438 10.9258H7.44727V12.9258H7.98438V10.9258ZM8.44727 11.9258V10.8027H6.44727V11.9258H8.44727ZM7.44727 9.80273H6.86133V11.8027H7.44727V9.80273ZM7.86133 10.8027V10.2656H5.86133V10.8027H7.86133ZM6.86133 9.26562H6.32422V11.2656H6.86133V9.26562ZM7.32422 10.2656V9.14258H5.32422V10.2656H7.32422ZM6.32422 8.14258H5.68945V10.1426H6.32422V8.14258ZM6.68945 9.14258V8.50781H4.68945V9.14258H6.68945ZM5.68945 7.50781H5.15234V9.50781H5.68945V7.50781ZM6.15234 8.50781V7.38477H4.15234V8.50781H6.15234ZM5.15234 6.38477H4.61523V8.38477H5.15234V6.38477ZM5.61523 7.38477V6.84766H3.61523V7.38477H5.61523ZM4.61523 5.84766H4.0293V7.84766H4.61523V5.84766ZM5.0293 6.84766V5.67578H3.0293V6.84766H5.0293ZM4.0293 4.67578H3.49219V6.67578H4.0293V4.67578ZM4.49219 5.67578V5.08984H2.49219V5.67578H4.49219ZM3.49219 4.08984H1.19727V6.08984H3.49219V4.08984ZM2.19727 5.08984V4.55273H0.197266V5.08984H2.19727ZM1.19727 3.55273H0.0742188V5.55273H1.19727V3.55273ZM1.07422 4.55273V1.7207H-0.925781V4.55273H1.07422ZM0.0742188 2.7207H1.19727V0.720703H0.0742188V2.7207ZM2.19727 1.7207V1.08594H0.197266V1.7207H2.19727ZM47.1934 31.1641V30.1641H46.1934V31.1641H47.1934ZM47.7793 31.1641V32.1641H48.7793V31.1641H47.7793ZM47.7793 26.7695H48.7793V25.7695H47.7793V26.7695ZM47.1934 26.7695H46.1934V27.7695H47.1934V26.7695ZM47.1934 26.2324H48.1934V25.2324H47.1934V26.2324ZM39.5762 26.2324V25.2324H38.5762V26.2324H39.5762ZM39.5762 26.7695V27.7695H40.5762V26.7695H39.5762ZM37.8672 26.7695V25.7695H36.8672V26.7695H37.8672ZM37.8672 27.3555V28.3555H38.8672V27.3555H37.8672ZM36.793 27.3555V26.3555H35.793V27.3555H36.793ZM36.793 27.8926V28.8926H37.793V27.8926H36.793ZM35.7188 27.8926V26.8926H34.7188V27.8926H35.7188ZM35.7188 28.4785V29.4785H36.7188V28.4785H35.7188ZM35.1328 28.4785V27.4785H34.1328V28.4785H35.1328ZM35.1328 28.9668V29.9668H36.1328V28.9668H35.1328ZM34.6445 28.9668V27.9668H33.6445V28.9668H34.6445ZM34.6445 30.0898V31.0898H35.6445V30.0898H34.6445ZM34.0586 30.0898V29.0898H33.0586V30.0898H34.0586ZM34.0586 32.2871H33.0586V33.2871H34.0586V32.2871ZM34.6445 32.2871H35.6445V31.2871H34.6445V32.2871ZM34.6445 33.4102H33.6445V34.4102H34.6445V33.4102ZM35.7188 33.4102H36.7188V32.4102H35.7188V33.4102ZM35.7188 33.8984H34.7188V34.8984H35.7188V33.8984ZM36.793 33.8984H37.793V32.8984H36.793V33.8984ZM36.793 34.4844H35.793V35.4844H36.793V34.4844ZM40.0645 34.4844H41.0645V33.4844H40.0645V34.4844ZM40.0645 35.0215H39.0645V36.0215H40.0645V35.0215ZM40.6504 35.0215V36.0215H41.6504V35.0215H40.6504ZM40.6504 34.4844V33.4844H39.6504V34.4844H40.6504ZM43.3848 34.4844V35.4844H44.3848V34.4844H43.3848ZM43.3848 33.8984V32.8984H42.3848V33.8984H43.3848ZM44.5078 33.8984V34.8984H45.5078V33.8984H44.5078ZM44.5078 33.4102V32.4102H43.5078V33.4102H44.5078ZM45.582 33.4102V34.4102H46.582V33.4102H45.582ZM45.582 32.8242V31.8242H44.582V32.8242H45.582ZM46.7051 32.8242V33.8242H47.7051V32.8242H46.7051ZM46.7051 32.2871V31.2871H45.7051V32.2871H46.7051ZM47.1934 32.2871V33.2871H48.1934V32.2871H47.1934ZM40.6504 12.5117V11.5117H39.6504V12.5117H40.6504ZM48.3164 12.5117H49.3164V11.5117H48.3164V12.5117ZM48.3164 13.0977H47.3164V14.0977H48.3164V13.0977ZM49.3906 13.0977H50.3906V12.0977H49.3906V13.0977ZM49.3906 13.5859H48.3906V14.5859H49.3906V13.5859ZM50.5137 13.5859H51.5137V12.5859H50.5137V13.5859ZM50.5137 14.123H49.5137V15.123H50.5137V14.123ZM51.0996 14.123H52.0996V13.123H51.0996V14.123ZM51.0996 14.709H50.0996V15.709H51.0996V14.709ZM51.6367 14.709H52.6367V13.709H51.6367V14.709ZM51.6367 15.2461H50.6367V16.2461H51.6367V15.2461ZM52.2227 15.2461H53.2227V14.2461H52.2227V15.2461ZM52.2227 16.3203H51.2227V17.3203H52.2227V16.3203ZM52.7109 16.3203H53.7109V15.3203H52.7109V16.3203ZM52.7109 22.375V23.375H53.7109V22.375H52.7109ZM52.2227 22.375V21.375H51.2227V22.375H52.2227ZM52.2227 33.8984H51.2227V34.8984H52.2227V33.8984ZM54.3223 33.8984V34.8984H55.3223V33.8984H54.3223ZM54.3223 33.4102V32.4102H53.3223V33.4102H54.3223ZM56.0312 33.4102H57.0312V32.4102H56.0312V33.4102ZM56.0312 33.8984H55.0312V34.8984H56.0312V33.8984ZM56.5195 33.8984H57.5195V32.8984H56.5195V33.8984ZM56.5195 34.4844H55.5195V35.4844H56.5195V34.4844ZM57.1055 34.4844H58.1055V33.4844H57.1055V34.4844ZM57.1055 36.0957V37.0957H58.1055V36.0957H57.1055ZM56.5195 36.0957V35.0957H55.5195V36.0957H56.5195ZM56.5195 36.6816V37.6816H57.5195V36.6816H56.5195ZM54.3223 36.6816V35.6816H53.3223V36.6816H54.3223ZM54.3223 37.2188V38.2188H55.3223V37.2188H54.3223ZM52.7109 37.2188V36.2188H51.7109V37.2188H52.7109ZM52.7109 37.8047V38.8047H53.7109V37.8047H52.7109ZM48.9023 37.8047H47.9023V38.8047H48.9023V37.8047ZM48.9023 37.2188H49.9023V36.2188H48.9023V37.2188ZM48.3164 37.2188H47.3164V38.2188H48.3164V37.2188ZM48.3164 36.6816H49.3164V35.6816H48.3164V36.6816ZM47.1934 36.6816H46.1934V37.6816H47.1934V36.6816ZM47.1934 36.0957H48.1934V35.0957H47.1934V36.0957ZM46.1191 36.0957V35.0957H45.1191V36.0957H46.1191ZM46.1191 36.6816V37.6816H47.1191V36.6816H46.1191ZM44.5078 36.6816V35.6816H43.5078V36.6816H44.5078ZM44.5078 37.2188V38.2188H45.5078V37.2188H44.5078ZM42.2617 37.2188V36.2188H41.2617V37.2188H42.2617ZM42.2617 37.8047V38.8047H43.2617V37.8047H42.2617ZM34.6445 37.8047H33.6445V38.8047H34.6445V37.8047ZM34.6445 37.2188H35.6445V36.2188H34.6445V37.2188ZM33.5215 37.2188H32.5215V38.2188H33.5215V37.2188ZM33.5215 36.6816H34.5215V35.6816H33.5215V36.6816ZM32.4473 36.6816H31.4473V37.6816H32.4473V36.6816ZM32.4473 36.0957H33.4473V35.0957H32.4473V36.0957ZM31.3242 36.0957H30.3242V37.0957H31.3242V36.0957ZM31.3242 35.6074H32.3242V34.6074H31.3242V35.6074ZM30.7383 35.6074H29.7383V36.6074H30.7383V35.6074ZM30.7383 34.4844H31.7383V33.4844H30.7383V34.4844ZM30.25 34.4844H29.25V35.4844H30.25V34.4844ZM30.25 33.4102H31.25V32.4102H30.25V33.4102ZM29.6641 33.4102H28.6641V34.4102H29.6641V33.4102ZM29.6641 29.5527V28.5527H28.6641V29.5527H29.6641ZM30.25 29.5527V30.5527H31.25V29.5527H30.25ZM30.25 28.4785V27.4785H29.25V28.4785H30.25ZM30.7383 28.4785V29.4785H31.7383V28.4785H30.7383ZM30.7383 27.3555V26.3555H29.7383V27.3555H30.7383ZM31.3242 27.3555V28.3555H32.3242V27.3555H31.3242ZM31.3242 26.7695V25.7695H30.3242V26.7695H31.3242ZM31.8613 26.7695V27.7695H32.8613V26.7695H31.8613ZM31.8613 26.2324V25.2324H30.8613V26.2324H31.8613ZM32.9355 26.2324V27.2324H33.9355V26.2324H32.9355ZM32.9355 25.6465V24.6465H31.9355V25.6465H32.9355ZM34.0586 25.6465V26.6465H35.0586V25.6465H34.0586ZM34.0586 25.1582V24.1582H33.0586V25.1582H34.0586ZM35.1328 25.1582V26.1582H36.1328V25.1582H35.1328ZM35.1328 24.5723V23.5723H34.1328V24.5723H35.1328ZM36.793 24.5723V25.5723H37.793V24.5723H36.793ZM36.793 24.0352V23.0352H35.793V24.0352H36.793ZM38.9902 24.0352V25.0352H39.9902V24.0352H38.9902ZM38.9902 23.4492V22.4492H37.9902V23.4492H38.9902ZM42.2617 23.4492V24.4492H43.2617V23.4492H42.2617ZM42.2617 22.9609V21.9609H41.2617V22.9609H42.2617ZM42.8477 22.9609H43.8477V21.9609H42.8477V22.9609ZM42.8477 23.4492H41.8477V24.4492H42.8477V23.4492ZM45.582 23.4492V24.4492H46.582V23.4492H45.582ZM45.582 22.9609V21.9609H44.582V22.9609H45.582ZM47.1934 22.9609V23.9609H48.1934V22.9609H47.1934ZM47.1934 22.375V21.375H46.1934V22.375H47.1934ZM47.7793 22.375V23.375H48.7793V22.375H47.7793ZM47.7793 21.8379V20.8379H46.7793V21.8379H47.7793ZM48.3164 21.8379V22.8379H49.3164V21.8379H48.3164ZM48.3164 17.4434H49.3164V16.4434H48.3164V17.4434ZM47.7793 17.4434H46.7793V18.4434H47.7793V17.4434ZM47.7793 16.9062H48.7793V15.9062H47.7793V16.9062ZM47.1934 16.9062H46.1934V17.9062H47.1934V16.9062ZM47.1934 16.3203H48.1934V15.3203H47.1934V16.3203ZM46.7051 16.3203H45.7051V17.3203H46.7051V16.3203ZM46.7051 15.7832H47.7051V14.7832H46.7051V15.7832ZM45.582 15.7832H44.582V16.7832H45.582V15.7832ZM45.582 15.2461H46.582V14.2461H45.582V15.2461ZM41.1875 15.2461V14.2461H40.1875V15.2461H41.1875ZM41.1875 15.7832V16.7832H42.1875V15.7832H41.1875ZM40.0645 15.7832V14.7832H39.0645V15.7832H40.0645ZM40.0645 16.3203V17.3203H41.0645V16.3203H40.0645ZM38.9902 16.3203V15.3203H37.9902V16.3203H38.9902ZM38.9902 16.9062V17.9062H39.9902V16.9062H38.9902ZM38.4531 16.9062V15.9062H37.4531V16.9062H38.4531ZM38.4531 17.4434V18.4434H39.4531V17.4434H38.4531ZM37.8672 17.4434V16.4434H36.8672V17.4434H37.8672ZM37.8672 19.1035V20.1035H38.8672V19.1035H37.8672ZM37.3789 19.1035V18.1035H36.3789V19.1035H37.3789ZM37.3789 19.6406V20.6406H38.3789V19.6406H37.3789ZM36.793 19.6406V18.6406H35.793V19.6406H36.793ZM36.793 20.2266V21.2266H37.793V20.2266H36.793ZM34.0586 20.2266H33.0586V21.2266H34.0586V20.2266ZM34.0586 19.6406H35.0586V18.6406H34.0586V19.6406ZM33.5215 19.6406H32.5215V20.6406H33.5215V19.6406ZM33.5215 19.1035H34.5215V18.1035H33.5215V19.1035ZM32.9355 19.1035H31.9355V20.1035H32.9355V19.1035ZM32.9355 16.3203V15.3203H31.9355V16.3203H32.9355ZM33.5215 16.3203V17.3203H34.5215V16.3203H33.5215ZM33.5215 15.2461V14.2461H32.5215V15.2461H33.5215ZM34.6445 15.2461V16.2461H35.6445V15.2461H34.6445ZM34.6445 14.709V13.709H33.6445V14.709H34.6445ZM35.7188 14.709V15.709H36.7188V14.709H35.7188ZM35.7188 14.123V13.123H34.7188V14.123H35.7188ZM36.793 14.123V15.123H37.793V14.123H36.793ZM36.793 13.5859V12.5859H35.793V13.5859H36.793ZM37.8672 13.5859V14.5859H38.8672V13.5859H37.8672ZM37.8672 13.0977V12.0977H36.8672V13.0977H37.8672ZM40.6504 13.0977V14.0977H41.6504V13.0977H40.6504ZM47.1934 32.1641H47.7793V30.1641H47.1934V32.1641ZM48.7793 31.1641V26.7695H46.7793V31.1641H48.7793ZM47.7793 25.7695H47.1934V27.7695H47.7793V25.7695ZM48.1934 26.7695V26.2324H46.1934V26.7695H48.1934ZM47.1934 25.2324H39.5762V27.2324H47.1934V25.2324ZM38.5762 26.2324V26.7695H40.5762V26.2324H38.5762ZM39.5762 25.7695H37.8672V27.7695H39.5762V25.7695ZM36.8672 26.7695V27.3555H38.8672V26.7695H36.8672ZM37.8672 26.3555H36.793V28.3555H37.8672V26.3555ZM35.793 27.3555V27.8926H37.793V27.3555H35.793ZM36.793 26.8926H35.7188V28.8926H36.793V26.8926ZM34.7188 27.8926V28.4785H36.7188V27.8926H34.7188ZM35.7188 27.4785H35.1328V29.4785H35.7188V27.4785ZM34.1328 28.4785V28.9668H36.1328V28.4785H34.1328ZM35.1328 27.9668H34.6445V29.9668H35.1328V27.9668ZM33.6445 28.9668V30.0898H35.6445V28.9668H33.6445ZM34.6445 29.0898H34.0586V31.0898H34.6445V29.0898ZM33.0586 30.0898V32.2871H35.0586V30.0898H33.0586ZM34.0586 33.2871H34.6445V31.2871H34.0586V33.2871ZM33.6445 32.2871V33.4102H35.6445V32.2871H33.6445ZM34.6445 34.4102H35.7188V32.4102H34.6445V34.4102ZM34.7188 33.4102V33.8984H36.7188V33.4102H34.7188ZM35.7188 34.8984H36.793V32.8984H35.7188V34.8984ZM35.793 33.8984V34.4844H37.793V33.8984H35.793ZM36.793 35.4844H40.0645V33.4844H36.793V35.4844ZM39.0645 34.4844V35.0215H41.0645V34.4844H39.0645ZM40.0645 36.0215H40.6504V34.0215H40.0645V36.0215ZM41.6504 35.0215V34.4844H39.6504V35.0215H41.6504ZM40.6504 35.4844H43.3848V33.4844H40.6504V35.4844ZM44.3848 34.4844V33.8984H42.3848V34.4844H44.3848ZM43.3848 34.8984H44.5078V32.8984H43.3848V34.8984ZM45.5078 33.8984V33.4102H43.5078V33.8984H45.5078ZM44.5078 34.4102H45.582V32.4102H44.5078V34.4102ZM46.582 33.4102V32.8242H44.582V33.4102H46.582ZM45.582 33.8242H46.7051V31.8242H45.582V33.8242ZM47.7051 32.8242V32.2871H45.7051V32.8242H47.7051ZM46.7051 33.2871H47.1934V31.2871H46.7051V33.2871ZM48.1934 32.2871V31.1641H46.1934V32.2871H48.1934ZM40.6504 13.5117H48.3164V11.5117H40.6504V13.5117ZM47.3164 12.5117V13.0977H49.3164V12.5117H47.3164ZM48.3164 14.0977H49.3906V12.0977H48.3164V14.0977ZM48.3906 13.0977V13.5859H50.3906V13.0977H48.3906ZM49.3906 14.5859H50.5137V12.5859H49.3906V14.5859ZM49.5137 13.5859V14.123H51.5137V13.5859H49.5137ZM50.5137 15.123H51.0996V13.123H50.5137V15.123ZM50.0996 14.123V14.709H52.0996V14.123H50.0996ZM51.0996 15.709H51.6367V13.709H51.0996V15.709ZM50.6367 14.709V15.2461H52.6367V14.709H50.6367ZM51.6367 16.2461H52.2227V14.2461H51.6367V16.2461ZM51.2227 15.2461V16.3203H53.2227V15.2461H51.2227ZM52.2227 17.3203H52.7109V15.3203H52.2227V17.3203ZM51.7109 16.3203V22.375H53.7109V16.3203H51.7109ZM52.7109 21.375H52.2227V23.375H52.7109V21.375ZM51.2227 22.375V33.8984H53.2227V22.375H51.2227ZM52.2227 34.8984H54.3223V32.8984H52.2227V34.8984ZM55.3223 33.8984V33.4102H53.3223V33.8984H55.3223ZM54.3223 34.4102H56.0312V32.4102H54.3223V34.4102ZM55.0312 33.4102V33.8984H57.0312V33.4102H55.0312ZM56.0312 34.8984H56.5195V32.8984H56.0312V34.8984ZM55.5195 33.8984V34.4844H57.5195V33.8984H55.5195ZM56.5195 35.4844H57.1055V33.4844H56.5195V35.4844ZM56.1055 34.4844V36.0957H58.1055V34.4844H56.1055ZM57.1055 35.0957H56.5195V37.0957H57.1055V35.0957ZM55.5195 36.0957V36.6816H57.5195V36.0957H55.5195ZM56.5195 35.6816H54.3223V37.6816H56.5195V35.6816ZM53.3223 36.6816V37.2188H55.3223V36.6816H53.3223ZM54.3223 36.2188H52.7109V38.2188H54.3223V36.2188ZM51.7109 37.2188V37.8047H53.7109V37.2188H51.7109ZM52.7109 36.8047H48.9023V38.8047H52.7109V36.8047ZM49.9023 37.8047V37.2188H47.9023V37.8047H49.9023ZM48.9023 36.2188H48.3164V38.2188H48.9023V36.2188ZM49.3164 37.2188V36.6816H47.3164V37.2188H49.3164ZM48.3164 35.6816H47.1934V37.6816H48.3164V35.6816ZM48.1934 36.6816V36.0957H46.1934V36.6816H48.1934ZM47.1934 35.0957H46.1191V37.0957H47.1934V35.0957ZM45.1191 36.0957V36.6816H47.1191V36.0957H45.1191ZM46.1191 35.6816H44.5078V37.6816H46.1191V35.6816ZM43.5078 36.6816V37.2188H45.5078V36.6816H43.5078ZM44.5078 36.2188H42.2617V38.2188H44.5078V36.2188ZM41.2617 37.2188V37.8047H43.2617V37.2188H41.2617ZM42.2617 36.8047H34.6445V38.8047H42.2617V36.8047ZM35.6445 37.8047V37.2188H33.6445V37.8047H35.6445ZM34.6445 36.2188H33.5215V38.2188H34.6445V36.2188ZM34.5215 37.2188V36.6816H32.5215V37.2188H34.5215ZM33.5215 35.6816H32.4473V37.6816H33.5215V35.6816ZM33.4473 36.6816V36.0957H31.4473V36.6816H33.4473ZM32.4473 35.0957H31.3242V37.0957H32.4473V35.0957ZM32.3242 36.0957V35.6074H30.3242V36.0957H32.3242ZM31.3242 34.6074H30.7383V36.6074H31.3242V34.6074ZM31.7383 35.6074V34.4844H29.7383V35.6074H31.7383ZM30.7383 33.4844H30.25V35.4844H30.7383V33.4844ZM31.25 34.4844V33.4102H29.25V34.4844H31.25ZM30.25 32.4102H29.6641V34.4102H30.25V32.4102ZM30.6641 33.4102V29.5527H28.6641V33.4102H30.6641ZM29.6641 30.5527H30.25V28.5527H29.6641V30.5527ZM31.25 29.5527V28.4785H29.25V29.5527H31.25ZM30.25 29.4785H30.7383V27.4785H30.25V29.4785ZM31.7383 28.4785V27.3555H29.7383V28.4785H31.7383ZM30.7383 28.3555H31.3242V26.3555H30.7383V28.3555ZM32.3242 27.3555V26.7695H30.3242V27.3555H32.3242ZM31.3242 27.7695H31.8613V25.7695H31.3242V27.7695ZM32.8613 26.7695V26.2324H30.8613V26.7695H32.8613ZM31.8613 27.2324H32.9355V25.2324H31.8613V27.2324ZM33.9355 26.2324V25.6465H31.9355V26.2324H33.9355ZM32.9355 26.6465H34.0586V24.6465H32.9355V26.6465ZM35.0586 25.6465V25.1582H33.0586V25.6465H35.0586ZM34.0586 26.1582H35.1328V24.1582H34.0586V26.1582ZM36.1328 25.1582V24.5723H34.1328V25.1582H36.1328ZM35.1328 25.5723H36.793V23.5723H35.1328V25.5723ZM37.793 24.5723V24.0352H35.793V24.5723H37.793ZM36.793 25.0352H38.9902V23.0352H36.793V25.0352ZM39.9902 24.0352V23.4492H37.9902V24.0352H39.9902ZM38.9902 24.4492H42.2617V22.4492H38.9902V24.4492ZM43.2617 23.4492V22.9609H41.2617V23.4492H43.2617ZM42.2617 23.9609H42.8477V21.9609H42.2617V23.9609ZM41.8477 22.9609V23.4492H43.8477V22.9609H41.8477ZM42.8477 24.4492H45.582V22.4492H42.8477V24.4492ZM46.582 23.4492V22.9609H44.582V23.4492H46.582ZM45.582 23.9609H47.1934V21.9609H45.582V23.9609ZM48.1934 22.9609V22.375H46.1934V22.9609H48.1934ZM47.1934 23.375H47.7793V21.375H47.1934V23.375ZM48.7793 22.375V21.8379H46.7793V22.375H48.7793ZM47.7793 22.8379H48.3164V20.8379H47.7793V22.8379ZM49.3164 21.8379V17.4434H47.3164V21.8379H49.3164ZM48.3164 16.4434H47.7793V18.4434H48.3164V16.4434ZM48.7793 17.4434V16.9062H46.7793V17.4434H48.7793ZM47.7793 15.9062H47.1934V17.9062H47.7793V15.9062ZM48.1934 16.9062V16.3203H46.1934V16.9062H48.1934ZM47.1934 15.3203H46.7051V17.3203H47.1934V15.3203ZM47.7051 16.3203V15.7832H45.7051V16.3203H47.7051ZM46.7051 14.7832H45.582V16.7832H46.7051V14.7832ZM46.582 15.7832V15.2461H44.582V15.7832H46.582ZM45.582 14.2461H41.1875V16.2461H45.582V14.2461ZM40.1875 15.2461V15.7832H42.1875V15.2461H40.1875ZM41.1875 14.7832H40.0645V16.7832H41.1875V14.7832ZM39.0645 15.7832V16.3203H41.0645V15.7832H39.0645ZM40.0645 15.3203H38.9902V17.3203H40.0645V15.3203ZM37.9902 16.3203V16.9062H39.9902V16.3203H37.9902ZM38.9902 15.9062H38.4531V17.9062H38.9902V15.9062ZM37.4531 16.9062V17.4434H39.4531V16.9062H37.4531ZM38.4531 16.4434H37.8672V18.4434H38.4531V16.4434ZM36.8672 17.4434V19.1035H38.8672V17.4434H36.8672ZM37.8672 18.1035H37.3789V20.1035H37.8672V18.1035ZM36.3789 19.1035V19.6406H38.3789V19.1035H36.3789ZM37.3789 18.6406H36.793V20.6406H37.3789V18.6406ZM35.793 19.6406V20.2266H37.793V19.6406H35.793ZM36.793 19.2266H34.0586V21.2266H36.793V19.2266ZM35.0586 20.2266V19.6406H33.0586V20.2266H35.0586ZM34.0586 18.6406H33.5215V20.6406H34.0586V18.6406ZM34.5215 19.6406V19.1035H32.5215V19.6406H34.5215ZM33.5215 18.1035H32.9355V20.1035H33.5215V18.1035ZM33.9355 19.1035V16.3203H31.9355V19.1035H33.9355ZM32.9355 17.3203H33.5215V15.3203H32.9355V17.3203ZM34.5215 16.3203V15.2461H32.5215V16.3203H34.5215ZM33.5215 16.2461H34.6445V14.2461H33.5215V16.2461ZM35.6445 15.2461V14.709H33.6445V15.2461H35.6445ZM34.6445 15.709H35.7188V13.709H34.6445V15.709ZM36.7188 14.709V14.123H34.7188V14.709H36.7188ZM35.7188 15.123H36.793V13.123H35.7188V15.123ZM37.793 14.123V13.5859H35.793V14.123H37.793ZM36.793 14.5859H37.8672V12.5859H36.793V14.5859ZM38.8672 13.5859V13.0977H36.8672V13.5859H38.8672ZM37.8672 14.0977H40.6504V12.0977H37.8672V14.0977ZM41.6504 13.0977V12.5117H39.6504V13.0977H41.6504ZM76.7832 31.1641V30.1641H75.7832V31.1641H76.7832ZM77.3691 31.1641V32.1641H78.3691V31.1641H77.3691ZM77.3691 26.7695H78.3691V25.7695H77.3691V26.7695ZM76.7832 26.7695H75.7832V27.7695H76.7832V26.7695ZM76.7832 26.2324H77.7832V25.2324H76.7832V26.2324ZM69.166 26.2324V25.2324H68.166V26.2324H69.166ZM69.166 26.7695V27.7695H70.166V26.7695H69.166ZM67.457 26.7695V25.7695H66.457V26.7695H67.457ZM67.457 27.3555V28.3555H68.457V27.3555H67.457ZM66.3828 27.3555V26.3555H65.3828V27.3555H66.3828ZM66.3828 27.8926V28.8926H67.3828V27.8926H66.3828ZM65.3086 27.8926V26.8926H64.3086V27.8926H65.3086ZM65.3086 28.4785V29.4785H66.3086V28.4785H65.3086ZM64.7227 28.4785V27.4785H63.7227V28.4785H64.7227ZM64.7227 28.9668V29.9668H65.7227V28.9668H64.7227ZM64.2344 28.9668V27.9668H63.2344V28.9668H64.2344ZM64.2344 30.0898V31.0898H65.2344V30.0898H64.2344ZM63.6484 30.0898V29.0898H62.6484V30.0898H63.6484ZM63.6484 32.2871H62.6484V33.2871H63.6484V32.2871ZM64.2344 32.2871H65.2344V31.2871H64.2344V32.2871ZM64.2344 33.4102H63.2344V34.4102H64.2344V33.4102ZM65.3086 33.4102H66.3086V32.4102H65.3086V33.4102ZM65.3086 33.8984H64.3086V34.8984H65.3086V33.8984ZM66.3828 33.8984H67.3828V32.8984H66.3828V33.8984ZM66.3828 34.4844H65.3828V35.4844H66.3828V34.4844ZM69.6543 34.4844H70.6543V33.4844H69.6543V34.4844ZM69.6543 35.0215H68.6543V36.0215H69.6543V35.0215ZM70.2402 35.0215V36.0215H71.2402V35.0215H70.2402ZM70.2402 34.4844V33.4844H69.2402V34.4844H70.2402ZM72.9746 34.4844V35.4844H73.9746V34.4844H72.9746ZM72.9746 33.8984V32.8984H71.9746V33.8984H72.9746ZM74.0977 33.8984V34.8984H75.0977V33.8984H74.0977ZM74.0977 33.4102V32.4102H73.0977V33.4102H74.0977ZM75.1719 33.4102V34.4102H76.1719V33.4102H75.1719ZM75.1719 32.8242V31.8242H74.1719V32.8242H75.1719ZM76.2949 32.8242V33.8242H77.2949V32.8242H76.2949ZM76.2949 32.2871V31.2871H75.2949V32.2871H76.2949ZM76.7832 32.2871V33.2871H77.7832V32.2871H76.7832ZM70.2402 12.5117V11.5117H69.2402V12.5117H70.2402ZM77.9062 12.5117H78.9062V11.5117H77.9062V12.5117ZM77.9062 13.0977H76.9062V14.0977H77.9062V13.0977ZM78.9805 13.0977H79.9805V12.0977H78.9805V13.0977ZM78.9805 13.5859H77.9805V14.5859H78.9805V13.5859ZM80.1035 13.5859H81.1035V12.5859H80.1035V13.5859ZM80.1035 14.123H79.1035V15.123H80.1035V14.123ZM80.6895 14.123H81.6895V13.123H80.6895V14.123ZM80.6895 14.709H79.6895V15.709H80.6895V14.709ZM81.2266 14.709H82.2266V13.709H81.2266V14.709ZM81.2266 15.2461H80.2266V16.2461H81.2266V15.2461ZM81.8125 15.2461H82.8125V14.2461H81.8125V15.2461ZM81.8125 16.3203H80.8125V17.3203H81.8125V16.3203ZM82.3008 16.3203H83.3008V15.3203H82.3008V16.3203ZM82.3008 22.375V23.375H83.3008V22.375H82.3008ZM81.8125 22.375V21.375H80.8125V22.375H81.8125ZM81.8125 33.8984H80.8125V34.8984H81.8125V33.8984ZM83.9121 33.8984V34.8984H84.9121V33.8984H83.9121ZM83.9121 33.4102V32.4102H82.9121V33.4102H83.9121ZM85.6211 33.4102H86.6211V32.4102H85.6211V33.4102ZM85.6211 33.8984H84.6211V34.8984H85.6211V33.8984ZM86.1094 33.8984H87.1094V32.8984H86.1094V33.8984ZM86.1094 34.4844H85.1094V35.4844H86.1094V34.4844ZM86.6953 34.4844H87.6953V33.4844H86.6953V34.4844ZM86.6953 36.0957V37.0957H87.6953V36.0957H86.6953ZM86.1094 36.0957V35.0957H85.1094V36.0957H86.1094ZM86.1094 36.6816V37.6816H87.1094V36.6816H86.1094ZM83.9121 36.6816V35.6816H82.9121V36.6816H83.9121ZM83.9121 37.2188V38.2188H84.9121V37.2188H83.9121ZM82.3008 37.2188V36.2188H81.3008V37.2188H82.3008ZM82.3008 37.8047V38.8047H83.3008V37.8047H82.3008ZM78.4922 37.8047H77.4922V38.8047H78.4922V37.8047ZM78.4922 37.2188H79.4922V36.2188H78.4922V37.2188ZM77.9062 37.2188H76.9062V38.2188H77.9062V37.2188ZM77.9062 36.6816H78.9062V35.6816H77.9062V36.6816ZM76.7832 36.6816H75.7832V37.6816H76.7832V36.6816ZM76.7832 36.0957H77.7832V35.0957H76.7832V36.0957ZM75.709 36.0957V35.0957H74.709V36.0957H75.709ZM75.709 36.6816V37.6816H76.709V36.6816H75.709ZM74.0977 36.6816V35.6816H73.0977V36.6816H74.0977ZM74.0977 37.2188V38.2188H75.0977V37.2188H74.0977ZM71.8516 37.2188V36.2188H70.8516V37.2188H71.8516ZM71.8516 37.8047V38.8047H72.8516V37.8047H71.8516ZM64.2344 37.8047H63.2344V38.8047H64.2344V37.8047ZM64.2344 37.2188H65.2344V36.2188H64.2344V37.2188ZM63.1113 37.2188H62.1113V38.2188H63.1113V37.2188ZM63.1113 36.6816H64.1113V35.6816H63.1113V36.6816ZM62.0371 36.6816H61.0371V37.6816H62.0371V36.6816ZM62.0371 36.0957H63.0371V35.0957H62.0371V36.0957ZM60.9141 36.0957H59.9141V37.0957H60.9141V36.0957ZM60.9141 35.6074H61.9141V34.6074H60.9141V35.6074ZM60.3281 35.6074H59.3281V36.6074H60.3281V35.6074ZM60.3281 34.4844H61.3281V33.4844H60.3281V34.4844ZM59.8398 34.4844H58.8398V35.4844H59.8398V34.4844ZM59.8398 33.4102H60.8398V32.4102H59.8398V33.4102ZM59.2539 33.4102H58.2539V34.4102H59.2539V33.4102ZM59.2539 29.5527V28.5527H58.2539V29.5527H59.2539ZM59.8398 29.5527V30.5527H60.8398V29.5527H59.8398ZM59.8398 28.4785V27.4785H58.8398V28.4785H59.8398ZM60.3281 28.4785V29.4785H61.3281V28.4785H60.3281ZM60.3281 27.3555V26.3555H59.3281V27.3555H60.3281ZM60.9141 27.3555V28.3555H61.9141V27.3555H60.9141ZM60.9141 26.7695V25.7695H59.9141V26.7695H60.9141ZM61.4512 26.7695V27.7695H62.4512V26.7695H61.4512ZM61.4512 26.2324V25.2324H60.4512V26.2324H61.4512ZM62.5254 26.2324V27.2324H63.5254V26.2324H62.5254ZM62.5254 25.6465V24.6465H61.5254V25.6465H62.5254ZM63.6484 25.6465V26.6465H64.6484V25.6465H63.6484ZM63.6484 25.1582V24.1582H62.6484V25.1582H63.6484ZM64.7227 25.1582V26.1582H65.7227V25.1582H64.7227ZM64.7227 24.5723V23.5723H63.7227V24.5723H64.7227ZM66.3828 24.5723V25.5723H67.3828V24.5723H66.3828ZM66.3828 24.0352V23.0352H65.3828V24.0352H66.3828ZM68.5801 24.0352V25.0352H69.5801V24.0352H68.5801ZM68.5801 23.4492V22.4492H67.5801V23.4492H68.5801ZM71.8516 23.4492V24.4492H72.8516V23.4492H71.8516ZM71.8516 22.9609V21.9609H70.8516V22.9609H71.8516ZM72.4375 22.9609H73.4375V21.9609H72.4375V22.9609ZM72.4375 23.4492H71.4375V24.4492H72.4375V23.4492ZM75.1719 23.4492V24.4492H76.1719V23.4492H75.1719ZM75.1719 22.9609V21.9609H74.1719V22.9609H75.1719ZM76.7832 22.9609V23.9609H77.7832V22.9609H76.7832ZM76.7832 22.375V21.375H75.7832V22.375H76.7832ZM77.3691 22.375V23.375H78.3691V22.375H77.3691ZM77.3691 21.8379V20.8379H76.3691V21.8379H77.3691ZM77.9062 21.8379V22.8379H78.9062V21.8379H77.9062ZM77.9062 17.4434H78.9062V16.4434H77.9062V17.4434ZM77.3691 17.4434H76.3691V18.4434H77.3691V17.4434ZM77.3691 16.9062H78.3691V15.9062H77.3691V16.9062ZM76.7832 16.9062H75.7832V17.9062H76.7832V16.9062ZM76.7832 16.3203H77.7832V15.3203H76.7832V16.3203ZM76.2949 16.3203H75.2949V17.3203H76.2949V16.3203ZM76.2949 15.7832H77.2949V14.7832H76.2949V15.7832ZM75.1719 15.7832H74.1719V16.7832H75.1719V15.7832ZM75.1719 15.2461H76.1719V14.2461H75.1719V15.2461ZM70.7773 15.2461V14.2461H69.7773V15.2461H70.7773ZM70.7773 15.7832V16.7832H71.7773V15.7832H70.7773ZM69.6543 15.7832V14.7832H68.6543V15.7832H69.6543ZM69.6543 16.3203V17.3203H70.6543V16.3203H69.6543ZM68.5801 16.3203V15.3203H67.5801V16.3203H68.5801ZM68.5801 16.9062V17.9062H69.5801V16.9062H68.5801ZM68.043 16.9062V15.9062H67.043V16.9062H68.043ZM68.043 17.4434V18.4434H69.043V17.4434H68.043ZM67.457 17.4434V16.4434H66.457V17.4434H67.457ZM67.457 19.1035V20.1035H68.457V19.1035H67.457ZM66.9688 19.1035V18.1035H65.9688V19.1035H66.9688ZM66.9688 19.6406V20.6406H67.9688V19.6406H66.9688ZM66.3828 19.6406V18.6406H65.3828V19.6406H66.3828ZM66.3828 20.2266V21.2266H67.3828V20.2266H66.3828ZM63.6484 20.2266H62.6484V21.2266H63.6484V20.2266ZM63.6484 19.6406H64.6484V18.6406H63.6484V19.6406ZM63.1113 19.6406H62.1113V20.6406H63.1113V19.6406ZM63.1113 19.1035H64.1113V18.1035H63.1113V19.1035ZM62.5254 19.1035H61.5254V20.1035H62.5254V19.1035ZM62.5254 16.3203V15.3203H61.5254V16.3203H62.5254ZM63.1113 16.3203V17.3203H64.1113V16.3203H63.1113ZM63.1113 15.2461V14.2461H62.1113V15.2461H63.1113ZM64.2344 15.2461V16.2461H65.2344V15.2461H64.2344ZM64.2344 14.709V13.709H63.2344V14.709H64.2344ZM65.3086 14.709V15.709H66.3086V14.709H65.3086ZM65.3086 14.123V13.123H64.3086V14.123H65.3086ZM66.3828 14.123V15.123H67.3828V14.123H66.3828ZM66.3828 13.5859V12.5859H65.3828V13.5859H66.3828ZM67.457 13.5859V14.5859H68.457V13.5859H67.457ZM67.457 13.0977V12.0977H66.457V13.0977H67.457ZM70.2402 13.0977V14.0977H71.2402V13.0977H70.2402ZM76.7832 32.1641H77.3691V30.1641H76.7832V32.1641ZM78.3691 31.1641V26.7695H76.3691V31.1641H78.3691ZM77.3691 25.7695H76.7832V27.7695H77.3691V25.7695ZM77.7832 26.7695V26.2324H75.7832V26.7695H77.7832ZM76.7832 25.2324H69.166V27.2324H76.7832V25.2324ZM68.166 26.2324V26.7695H70.166V26.2324H68.166ZM69.166 25.7695H67.457V27.7695H69.166V25.7695ZM66.457 26.7695V27.3555H68.457V26.7695H66.457ZM67.457 26.3555H66.3828V28.3555H67.457V26.3555ZM65.3828 27.3555V27.8926H67.3828V27.3555H65.3828ZM66.3828 26.8926H65.3086V28.8926H66.3828V26.8926ZM64.3086 27.8926V28.4785H66.3086V27.8926H64.3086ZM65.3086 27.4785H64.7227V29.4785H65.3086V27.4785ZM63.7227 28.4785V28.9668H65.7227V28.4785H63.7227ZM64.7227 27.9668H64.2344V29.9668H64.7227V27.9668ZM63.2344 28.9668V30.0898H65.2344V28.9668H63.2344ZM64.2344 29.0898H63.6484V31.0898H64.2344V29.0898ZM62.6484 30.0898V32.2871H64.6484V30.0898H62.6484ZM63.6484 33.2871H64.2344V31.2871H63.6484V33.2871ZM63.2344 32.2871V33.4102H65.2344V32.2871H63.2344ZM64.2344 34.4102H65.3086V32.4102H64.2344V34.4102ZM64.3086 33.4102V33.8984H66.3086V33.4102H64.3086ZM65.3086 34.8984H66.3828V32.8984H65.3086V34.8984ZM65.3828 33.8984V34.4844H67.3828V33.8984H65.3828ZM66.3828 35.4844H69.6543V33.4844H66.3828V35.4844ZM68.6543 34.4844V35.0215H70.6543V34.4844H68.6543ZM69.6543 36.0215H70.2402V34.0215H69.6543V36.0215ZM71.2402 35.0215V34.4844H69.2402V35.0215H71.2402ZM70.2402 35.4844H72.9746V33.4844H70.2402V35.4844ZM73.9746 34.4844V33.8984H71.9746V34.4844H73.9746ZM72.9746 34.8984H74.0977V32.8984H72.9746V34.8984ZM75.0977 33.8984V33.4102H73.0977V33.8984H75.0977ZM74.0977 34.4102H75.1719V32.4102H74.0977V34.4102ZM76.1719 33.4102V32.8242H74.1719V33.4102H76.1719ZM75.1719 33.8242H76.2949V31.8242H75.1719V33.8242ZM77.2949 32.8242V32.2871H75.2949V32.8242H77.2949ZM76.2949 33.2871H76.7832V31.2871H76.2949V33.2871ZM77.7832 32.2871V31.1641H75.7832V32.2871H77.7832ZM70.2402 13.5117H77.9062V11.5117H70.2402V13.5117ZM76.9062 12.5117V13.0977H78.9062V12.5117H76.9062ZM77.9062 14.0977H78.9805V12.0977H77.9062V14.0977ZM77.9805 13.0977V13.5859H79.9805V13.0977H77.9805ZM78.9805 14.5859H80.1035V12.5859H78.9805V14.5859ZM79.1035 13.5859V14.123H81.1035V13.5859H79.1035ZM80.1035 15.123H80.6895V13.123H80.1035V15.123ZM79.6895 14.123V14.709H81.6895V14.123H79.6895ZM80.6895 15.709H81.2266V13.709H80.6895V15.709ZM80.2266 14.709V15.2461H82.2266V14.709H80.2266ZM81.2266 16.2461H81.8125V14.2461H81.2266V16.2461ZM80.8125 15.2461V16.3203H82.8125V15.2461H80.8125ZM81.8125 17.3203H82.3008V15.3203H81.8125V17.3203ZM81.3008 16.3203V22.375H83.3008V16.3203H81.3008ZM82.3008 21.375H81.8125V23.375H82.3008V21.375ZM80.8125 22.375V33.8984H82.8125V22.375H80.8125ZM81.8125 34.8984H83.9121V32.8984H81.8125V34.8984ZM84.9121 33.8984V33.4102H82.9121V33.8984H84.9121ZM83.9121 34.4102H85.6211V32.4102H83.9121V34.4102ZM84.6211 33.4102V33.8984H86.6211V33.4102H84.6211ZM85.6211 34.8984H86.1094V32.8984H85.6211V34.8984ZM85.1094 33.8984V34.4844H87.1094V33.8984H85.1094ZM86.1094 35.4844H86.6953V33.4844H86.1094V35.4844ZM85.6953 34.4844V36.0957H87.6953V34.4844H85.6953ZM86.6953 35.0957H86.1094V37.0957H86.6953V35.0957ZM85.1094 36.0957V36.6816H87.1094V36.0957H85.1094ZM86.1094 35.6816H83.9121V37.6816H86.1094V35.6816ZM82.9121 36.6816V37.2188H84.9121V36.6816H82.9121ZM83.9121 36.2188H82.3008V38.2188H83.9121V36.2188ZM81.3008 37.2188V37.8047H83.3008V37.2188H81.3008ZM82.3008 36.8047H78.4922V38.8047H82.3008V36.8047ZM79.4922 37.8047V37.2188H77.4922V37.8047H79.4922ZM78.4922 36.2188H77.9062V38.2188H78.4922V36.2188ZM78.9062 37.2188V36.6816H76.9062V37.2188H78.9062ZM77.9062 35.6816H76.7832V37.6816H77.9062V35.6816ZM77.7832 36.6816V36.0957H75.7832V36.6816H77.7832ZM76.7832 35.0957H75.709V37.0957H76.7832V35.0957ZM74.709 36.0957V36.6816H76.709V36.0957H74.709ZM75.709 35.6816H74.0977V37.6816H75.709V35.6816ZM73.0977 36.6816V37.2188H75.0977V36.6816H73.0977ZM74.0977 36.2188H71.8516V38.2188H74.0977V36.2188ZM70.8516 37.2188V37.8047H72.8516V37.2188H70.8516ZM71.8516 36.8047H64.2344V38.8047H71.8516V36.8047ZM65.2344 37.8047V37.2188H63.2344V37.8047H65.2344ZM64.2344 36.2188H63.1113V38.2188H64.2344V36.2188ZM64.1113 37.2188V36.6816H62.1113V37.2188H64.1113ZM63.1113 35.6816H62.0371V37.6816H63.1113V35.6816ZM63.0371 36.6816V36.0957H61.0371V36.6816H63.0371ZM62.0371 35.0957H60.9141V37.0957H62.0371V35.0957ZM61.9141 36.0957V35.6074H59.9141V36.0957H61.9141ZM60.9141 34.6074H60.3281V36.6074H60.9141V34.6074ZM61.3281 35.6074V34.4844H59.3281V35.6074H61.3281ZM60.3281 33.4844H59.8398V35.4844H60.3281V33.4844ZM60.8398 34.4844V33.4102H58.8398V34.4844H60.8398ZM59.8398 32.4102H59.2539V34.4102H59.8398V32.4102ZM60.2539 33.4102V29.5527H58.2539V33.4102H60.2539ZM59.2539 30.5527H59.8398V28.5527H59.2539V30.5527ZM60.8398 29.5527V28.4785H58.8398V29.5527H60.8398ZM59.8398 29.4785H60.3281V27.4785H59.8398V29.4785ZM61.3281 28.4785V27.3555H59.3281V28.4785H61.3281ZM60.3281 28.3555H60.9141V26.3555H60.3281V28.3555ZM61.9141 27.3555V26.7695H59.9141V27.3555H61.9141ZM60.9141 27.7695H61.4512V25.7695H60.9141V27.7695ZM62.4512 26.7695V26.2324H60.4512V26.7695H62.4512ZM61.4512 27.2324H62.5254V25.2324H61.4512V27.2324ZM63.5254 26.2324V25.6465H61.5254V26.2324H63.5254ZM62.5254 26.6465H63.6484V24.6465H62.5254V26.6465ZM64.6484 25.6465V25.1582H62.6484V25.6465H64.6484ZM63.6484 26.1582H64.7227V24.1582H63.6484V26.1582ZM65.7227 25.1582V24.5723H63.7227V25.1582H65.7227ZM64.7227 25.5723H66.3828V23.5723H64.7227V25.5723ZM67.3828 24.5723V24.0352H65.3828V24.5723H67.3828ZM66.3828 25.0352H68.5801V23.0352H66.3828V25.0352ZM69.5801 24.0352V23.4492H67.5801V24.0352H69.5801ZM68.5801 24.4492H71.8516V22.4492H68.5801V24.4492ZM72.8516 23.4492V22.9609H70.8516V23.4492H72.8516ZM71.8516 23.9609H72.4375V21.9609H71.8516V23.9609ZM71.4375 22.9609V23.4492H73.4375V22.9609H71.4375ZM72.4375 24.4492H75.1719V22.4492H72.4375V24.4492ZM76.1719 23.4492V22.9609H74.1719V23.4492H76.1719ZM75.1719 23.9609H76.7832V21.9609H75.1719V23.9609ZM77.7832 22.9609V22.375H75.7832V22.9609H77.7832ZM76.7832 23.375H77.3691V21.375H76.7832V23.375ZM78.3691 22.375V21.8379H76.3691V22.375H78.3691ZM77.3691 22.8379H77.9062V20.8379H77.3691V22.8379ZM78.9062 21.8379V17.4434H76.9062V21.8379H78.9062ZM77.9062 16.4434H77.3691V18.4434H77.9062V16.4434ZM78.3691 17.4434V16.9062H76.3691V17.4434H78.3691ZM77.3691 15.9062H76.7832V17.9062H77.3691V15.9062ZM77.7832 16.9062V16.3203H75.7832V16.9062H77.7832ZM76.7832 15.3203H76.2949V17.3203H76.7832V15.3203ZM77.2949 16.3203V15.7832H75.2949V16.3203H77.2949ZM76.2949 14.7832H75.1719V16.7832H76.2949V14.7832ZM76.1719 15.7832V15.2461H74.1719V15.7832H76.1719ZM75.1719 14.2461H70.7773V16.2461H75.1719V14.2461ZM69.7773 15.2461V15.7832H71.7773V15.2461H69.7773ZM70.7773 14.7832H69.6543V16.7832H70.7773V14.7832ZM68.6543 15.7832V16.3203H70.6543V15.7832H68.6543ZM69.6543 15.3203H68.5801V17.3203H69.6543V15.3203ZM67.5801 16.3203V16.9062H69.5801V16.3203H67.5801ZM68.5801 15.9062H68.043V17.9062H68.5801V15.9062ZM67.043 16.9062V17.4434H69.043V16.9062H67.043ZM68.043 16.4434H67.457V18.4434H68.043V16.4434ZM66.457 17.4434V19.1035H68.457V17.4434H66.457ZM67.457 18.1035H66.9688V20.1035H67.457V18.1035ZM65.9688 19.1035V19.6406H67.9688V19.1035H65.9688ZM66.9688 18.6406H66.3828V20.6406H66.9688V18.6406ZM65.3828 19.6406V20.2266H67.3828V19.6406H65.3828ZM66.3828 19.2266H63.6484V21.2266H66.3828V19.2266ZM64.6484 20.2266V19.6406H62.6484V20.2266H64.6484ZM63.6484 18.6406H63.1113V20.6406H63.6484V18.6406ZM64.1113 19.6406V19.1035H62.1113V19.6406H64.1113ZM63.1113 18.1035H62.5254V20.1035H63.1113V18.1035ZM63.5254 19.1035V16.3203H61.5254V19.1035H63.5254ZM62.5254 17.3203H63.1113V15.3203H62.5254V17.3203ZM64.1113 16.3203V15.2461H62.1113V16.3203H64.1113ZM63.1113 16.2461H64.2344V14.2461H63.1113V16.2461ZM65.2344 15.2461V14.709H63.2344V15.2461H65.2344ZM64.2344 15.709H65.3086V13.709H64.2344V15.709ZM66.3086 14.709V14.123H64.3086V14.709H66.3086ZM65.3086 15.123H66.3828V13.123H65.3086V15.123ZM67.3828 14.123V13.5859H65.3828V14.123H67.3828ZM66.3828 14.5859H67.457V12.5859H66.3828V14.5859ZM68.457 13.5859V13.0977H66.457V13.5859H68.457ZM67.457 14.0977H70.2402V12.0977H67.457V14.0977ZM71.2402 13.0977V12.5117H69.2402V13.0977H71.2402ZM93.2383 27.3555H92.2383V28.3555H93.2383V27.3555ZM93.7754 27.3555H94.7754V26.3555H93.7754V27.3555ZM93.7754 29.5527H92.7754V30.5527H93.7754V29.5527ZM94.3613 29.5527H95.3613V28.5527H94.3613V29.5527ZM94.3613 30.5781H93.3613V31.5781H94.3613V30.5781ZM94.8984 30.5781H95.8984V29.5781H94.8984V30.5781ZM94.8984 31.1641H93.8984V32.1641H94.8984V31.1641ZM95.4844 31.1641H96.4844V30.1641H95.4844V31.1641ZM95.4844 32.2871H94.4844V33.2871H95.4844V32.2871ZM95.9727 32.2871H96.9727V31.2871H95.9727V32.2871ZM95.9727 32.8242H94.9727V33.8242H95.9727V32.8242ZM96.5586 32.8242H97.5586V31.8242H96.5586V32.8242ZM96.5586 33.4102H95.5586V34.4102H96.5586V33.4102ZM97.0957 33.4102H98.0957V32.4102H97.0957V33.4102ZM97.0957 33.8984H96.0957V34.8984H97.0957V33.8984ZM98.1699 33.8984H99.1699V32.8984H98.1699V33.8984ZM98.1699 34.4844H97.1699V35.4844H98.1699V34.4844ZM102.027 34.4844H103.027V33.4844H102.027V34.4844ZM102.027 35.0215H101.027V36.0215H102.027V35.0215ZM103.102 35.0215V36.0215H104.102V35.0215H103.102ZM103.102 34.4844V33.4844H102.102V34.4844H103.102ZM105.299 34.4844V35.4844H106.299V34.4844H105.299ZM105.299 33.8984V32.8984H104.299V33.8984H105.299ZM106.422 33.8984V34.8984H107.422V33.8984H106.422ZM106.422 33.4102V32.4102H105.422V33.4102H106.422ZM107.008 33.4102V34.4102H108.008V33.4102H107.008ZM107.008 32.8242V31.8242H106.008V32.8242H107.008ZM107.496 32.8242V33.8242H108.496V32.8242H107.496ZM107.496 27.8926V26.8926H106.496V27.8926H107.496ZM108.082 27.8926V28.8926H109.082V27.8926H108.082ZM108.082 20.2266H109.082V19.2266H108.082V20.2266ZM107.496 20.2266H106.496V21.2266H107.496V20.2266ZM107.496 18.0293H108.496V17.0293H107.496V18.0293ZM106.422 18.0293H105.422V19.0293H106.422V18.0293ZM106.422 17.4434H107.422V16.4434H106.422V17.4434ZM105.299 17.4434H104.299V18.4434H105.299V17.4434ZM105.299 16.9062H106.299V15.9062H105.299V16.9062ZM103.688 16.9062H102.688V17.9062H103.688V16.9062ZM103.688 16.3203H104.688V15.3203H103.688V16.3203ZM99.8789 16.3203V15.3203H98.8789V16.3203H99.8789ZM99.8789 16.9062V17.9062H100.879V16.9062H99.8789ZM98.1699 16.9062V15.9062H97.1699V16.9062H98.1699ZM98.1699 17.4434V18.4434H99.1699V17.4434H98.1699ZM97.0957 17.4434V16.4434H96.0957V17.4434H97.0957ZM97.0957 18.0293V19.0293H98.0957V18.0293H97.0957ZM95.9727 18.0293V17.0293H94.9727V18.0293H95.9727ZM95.9727 19.1035V20.1035H96.9727V19.1035H95.9727ZM95.4844 19.1035V18.1035H94.4844V19.1035H95.4844ZM95.4844 19.6406V20.6406H96.4844V19.6406H95.4844ZM94.8984 19.6406V18.6406H93.8984V19.6406H94.8984ZM94.8984 20.2266V21.2266H95.8984V20.2266H94.8984ZM94.3613 20.2266V19.2266H93.3613V20.2266H94.3613ZM94.3613 21.3008V22.3008H95.3613V21.3008H94.3613ZM93.7754 21.3008V20.3008H92.7754V21.3008H93.7754ZM93.7754 22.9609V23.9609H94.7754V22.9609H93.7754ZM93.2383 22.9609V21.9609H92.2383V22.9609H93.2383ZM109.205 0.451172V-0.548828H108.205V0.451172H109.205ZM111.939 0.451172H112.939V-0.548828H111.939V0.451172ZM111.939 2.0625H110.939V3.0625H111.939V2.0625ZM112.428 2.0625H113.428V1.0625H112.428V2.0625ZM112.428 4.25977V5.25977H113.428V4.25977H112.428ZM111.939 4.25977V3.25977H110.939V4.25977H111.939ZM111.939 6.45703H110.939V7.45703H111.939V6.45703ZM112.428 6.45703H113.428V5.45703H112.428V6.45703ZM112.428 8.06836V9.06836H113.428V8.06836H112.428ZM111.939 8.06836V7.06836H110.939V8.06836H111.939ZM111.939 32.2871H110.939V33.2871H111.939V32.2871ZM112.428 32.2871H113.428V31.2871H112.428V32.2871ZM112.428 33.4102H111.428V34.4102H112.428V33.4102ZM115.211 33.4102H116.211V32.4102H115.211V33.4102ZM115.211 33.8984H114.211V34.8984H115.211V33.8984ZM116.334 33.8984H117.334V32.8984H116.334V33.8984ZM116.334 36.0957V37.0957H117.334V36.0957H116.334ZM115.748 36.0957V35.0957H114.748V36.0957H115.748ZM115.748 36.6816V37.6816H116.748V36.6816H115.748ZM113.551 36.6816V35.6816H112.551V36.6816H113.551ZM113.551 37.2188V38.2188H114.551V37.2188H113.551ZM111.939 37.2188V36.2188H110.939V37.2188H111.939ZM111.939 37.8047V38.8047H112.939V37.8047H111.939ZM108.619 37.8047H107.619V38.8047H108.619V37.8047ZM108.619 37.2188H109.619V36.2188H108.619V37.2188ZM105.885 37.2188V36.2188H104.885V37.2188H105.885ZM105.885 37.8047V38.8047H106.885V37.8047H105.885ZM103.688 37.8047V36.8047H102.688V37.8047H103.688ZM103.688 38.3418V39.3418H104.688V38.3418H103.688ZM96.5586 38.3418H95.5586V39.3418H96.5586V38.3418ZM96.5586 37.8047H97.5586V36.8047H96.5586V37.8047ZM95.4844 37.8047H94.4844V38.8047H95.4844V37.8047ZM95.4844 37.2188H96.4844V36.2188H95.4844V37.2188ZM94.3613 37.2188H93.3613V38.2188H94.3613V37.2188ZM94.3613 36.6816H95.3613V35.6816H94.3613V36.6816ZM93.7754 36.6816H92.7754V37.6816H93.7754V36.6816ZM93.7754 36.0957H94.7754V35.0957H93.7754V36.0957ZM92.75 36.0957H91.75V37.0957H92.75V36.0957ZM92.75 35.6074H93.75V34.6074H92.75V35.6074ZM92.1641 35.6074H91.1641V36.6074H92.1641V35.6074ZM92.1641 35.0215H93.1641V34.0215H92.1641V35.0215ZM91.627 35.0215H90.627V36.0215H91.627V35.0215ZM91.627 34.4844H92.627V33.4844H91.627V34.4844ZM91.041 34.4844H90.041V35.4844H91.041V34.4844ZM91.041 33.4102H92.041V32.4102H91.041V33.4102ZM90.5527 33.4102H89.5527V34.4102H90.5527V33.4102ZM90.5527 32.8242H91.5527V31.8242H90.5527V32.8242ZM89.9668 32.8242H88.9668V33.8242H89.9668V32.8242ZM89.9668 31.7012H90.9668V30.7012H89.9668V31.7012ZM89.4297 31.7012H88.4297V32.7012H89.4297V31.7012ZM89.4297 29.5527H90.4297V28.5527H89.4297V29.5527ZM88.8438 29.5527H87.8438V30.5527H88.8438V29.5527ZM88.8438 22.9609V21.9609H87.8438V22.9609H88.8438ZM89.4297 22.9609V23.9609H90.4297V22.9609H89.4297ZM89.4297 21.3008V20.3008H88.4297V21.3008H89.4297ZM89.9668 21.3008V22.3008H90.9668V21.3008H89.9668ZM89.9668 19.6406V18.6406H88.9668V19.6406H89.9668ZM90.5527 19.6406V20.6406H91.5527V19.6406H90.5527ZM90.5527 18.5176V17.5176H89.5527V18.5176H90.5527ZM91.041 18.5176V19.5176H92.041V18.5176H91.041ZM91.041 18.0293V17.0293H90.041V18.0293H91.041ZM91.627 18.0293V19.0293H92.627V18.0293H91.627ZM91.627 17.4434V16.4434H90.627V17.4434H91.627ZM92.1641 17.4434V18.4434H93.1641V17.4434H92.1641ZM92.1641 16.9062V15.9062H91.1641V16.9062H92.1641ZM92.75 16.9062V17.9062H93.75V16.9062H92.75ZM92.75 16.3203V15.3203H91.75V16.3203H92.75ZM93.2383 16.3203V17.3203H94.2383V16.3203H93.2383ZM93.2383 15.7832V14.7832H92.2383V15.7832H93.2383ZM93.7754 15.7832V16.7832H94.7754V15.7832H93.7754ZM93.7754 15.2461V14.2461H92.7754V15.2461H93.7754ZM94.8984 15.2461V16.2461H95.8984V15.2461H94.8984ZM94.8984 14.709V13.709H93.8984V14.709H94.8984ZM95.9727 14.709V15.709H96.9727V14.709H95.9727ZM95.9727 14.123V13.123H94.9727V14.123H95.9727ZM97.0957 14.123V15.123H98.0957V14.123H97.0957ZM97.0957 13.5859V12.5859H96.0957V13.5859H97.0957ZM105.885 13.5859H106.885V12.5859H105.885V13.5859ZM105.885 14.123H104.885V15.123H105.885V14.123ZM107.496 14.123V15.123H108.496V14.123H107.496ZM107.496 12.5117V11.5117H106.496V12.5117H107.496ZM108.082 12.5117V13.5117H109.082V12.5117H108.082ZM108.082 11.3887H109.082V10.3887H108.082V11.3887ZM107.496 11.3887H106.496V12.3887H107.496V11.3887ZM107.496 8.06836V7.06836H106.496V8.06836H107.496ZM108.082 8.06836V9.06836H109.082V8.06836H108.082ZM108.082 6.45703H109.082V5.45703H108.082V6.45703ZM107.496 6.45703H106.496V7.45703H107.496V6.45703ZM107.496 5.38281H108.496V4.38281H107.496V5.38281ZM105.885 5.38281H104.885V6.38281H105.885V5.38281ZM105.885 4.8457H106.885V3.8457H105.885V4.8457ZM103.102 4.8457H102.102V5.8457H103.102V4.8457ZM103.102 2.64844V1.64844H102.102V2.64844H103.102ZM103.688 2.64844V3.64844H104.688V2.64844H103.688ZM103.688 2.0625V1.0625H102.688V2.0625H103.688ZM104.811 2.0625V3.0625H105.811V2.0625H104.811ZM104.811 1.52539V0.525391H103.811V1.52539H104.811ZM107.496 1.52539V2.52539H108.496V1.52539H107.496ZM107.496 0.939453V-0.0605469H106.496V0.939453H107.496ZM109.205 0.939453V1.93945H110.205V0.939453H109.205ZM93.2383 28.3555H93.7754V26.3555H93.2383V28.3555ZM92.7754 27.3555V29.5527H94.7754V27.3555H92.7754ZM93.7754 30.5527H94.3613V28.5527H93.7754V30.5527ZM93.3613 29.5527V30.5781H95.3613V29.5527H93.3613ZM94.3613 31.5781H94.8984V29.5781H94.3613V31.5781ZM93.8984 30.5781V31.1641H95.8984V30.5781H93.8984ZM94.8984 32.1641H95.4844V30.1641H94.8984V32.1641ZM94.4844 31.1641V32.2871H96.4844V31.1641H94.4844ZM95.4844 33.2871H95.9727V31.2871H95.4844V33.2871ZM94.9727 32.2871V32.8242H96.9727V32.2871H94.9727ZM95.9727 33.8242H96.5586V31.8242H95.9727V33.8242ZM95.5586 32.8242V33.4102H97.5586V32.8242H95.5586ZM96.5586 34.4102H97.0957V32.4102H96.5586V34.4102ZM96.0957 33.4102V33.8984H98.0957V33.4102H96.0957ZM97.0957 34.8984H98.1699V32.8984H97.0957V34.8984ZM97.1699 33.8984V34.4844H99.1699V33.8984H97.1699ZM98.1699 35.4844H102.027V33.4844H98.1699V35.4844ZM101.027 34.4844V35.0215H103.027V34.4844H101.027ZM102.027 36.0215H103.102V34.0215H102.027V36.0215ZM104.102 35.0215V34.4844H102.102V35.0215H104.102ZM103.102 35.4844H105.299V33.4844H103.102V35.4844ZM106.299 34.4844V33.8984H104.299V34.4844H106.299ZM105.299 34.8984H106.422V32.8984H105.299V34.8984ZM107.422 33.8984V33.4102H105.422V33.8984H107.422ZM106.422 34.4102H107.008V32.4102H106.422V34.4102ZM108.008 33.4102V32.8242H106.008V33.4102H108.008ZM107.008 33.8242H107.496V31.8242H107.008V33.8242ZM108.496 32.8242V27.8926H106.496V32.8242H108.496ZM107.496 28.8926H108.082V26.8926H107.496V28.8926ZM109.082 27.8926V20.2266H107.082V27.8926H109.082ZM108.082 19.2266H107.496V21.2266H108.082V19.2266ZM108.496 20.2266V18.0293H106.496V20.2266H108.496ZM107.496 17.0293H106.422V19.0293H107.496V17.0293ZM107.422 18.0293V17.4434H105.422V18.0293H107.422ZM106.422 16.4434H105.299V18.4434H106.422V16.4434ZM106.299 17.4434V16.9062H104.299V17.4434H106.299ZM105.299 15.9062H103.688V17.9062H105.299V15.9062ZM104.688 16.9062V16.3203H102.688V16.9062H104.688ZM103.688 15.3203H99.8789V17.3203H103.688V15.3203ZM98.8789 16.3203V16.9062H100.879V16.3203H98.8789ZM99.8789 15.9062H98.1699V17.9062H99.8789V15.9062ZM97.1699 16.9062V17.4434H99.1699V16.9062H97.1699ZM98.1699 16.4434H97.0957V18.4434H98.1699V16.4434ZM96.0957 17.4434V18.0293H98.0957V17.4434H96.0957ZM97.0957 17.0293H95.9727V19.0293H97.0957V17.0293ZM94.9727 18.0293V19.1035H96.9727V18.0293H94.9727ZM95.9727 18.1035H95.4844V20.1035H95.9727V18.1035ZM94.4844 19.1035V19.6406H96.4844V19.1035H94.4844ZM95.4844 18.6406H94.8984V20.6406H95.4844V18.6406ZM93.8984 19.6406V20.2266H95.8984V19.6406H93.8984ZM94.8984 19.2266H94.3613V21.2266H94.8984V19.2266ZM93.3613 20.2266V21.3008H95.3613V20.2266H93.3613ZM94.3613 20.3008H93.7754V22.3008H94.3613V20.3008ZM92.7754 21.3008V22.9609H94.7754V21.3008H92.7754ZM93.7754 21.9609H93.2383V23.9609H93.7754V21.9609ZM92.2383 22.9609V27.3555H94.2383V22.9609H92.2383ZM109.205 1.45117H111.939V-0.548828H109.205V1.45117ZM110.939 0.451172V2.0625H112.939V0.451172H110.939ZM111.939 3.0625H112.428V1.0625H111.939V3.0625ZM111.428 2.0625V4.25977H113.428V2.0625H111.428ZM112.428 3.25977H111.939V5.25977H112.428V3.25977ZM110.939 4.25977V6.45703H112.939V4.25977H110.939ZM111.939 7.45703H112.428V5.45703H111.939V7.45703ZM111.428 6.45703V8.06836H113.428V6.45703H111.428ZM112.428 7.06836H111.939V9.06836H112.428V7.06836ZM110.939 8.06836V32.2871H112.939V8.06836H110.939ZM111.939 33.2871H112.428V31.2871H111.939V33.2871ZM111.428 32.2871V33.4102H113.428V32.2871H111.428ZM112.428 34.4102H115.211V32.4102H112.428V34.4102ZM114.211 33.4102V33.8984H116.211V33.4102H114.211ZM115.211 34.8984H116.334V32.8984H115.211V34.8984ZM115.334 33.8984V36.0957H117.334V33.8984H115.334ZM116.334 35.0957H115.748V37.0957H116.334V35.0957ZM114.748 36.0957V36.6816H116.748V36.0957H114.748ZM115.748 35.6816H113.551V37.6816H115.748V35.6816ZM112.551 36.6816V37.2188H114.551V36.6816H112.551ZM113.551 36.2188H111.939V38.2188H113.551V36.2188ZM110.939 37.2188V37.8047H112.939V37.2188H110.939ZM111.939 36.8047H108.619V38.8047H111.939V36.8047ZM109.619 37.8047V37.2188H107.619V37.8047H109.619ZM108.619 36.2188H105.885V38.2188H108.619V36.2188ZM104.885 37.2188V37.8047H106.885V37.2188H104.885ZM105.885 36.8047H103.688V38.8047H105.885V36.8047ZM102.688 37.8047V38.3418H104.688V37.8047H102.688ZM103.688 37.3418H96.5586V39.3418H103.688V37.3418ZM97.5586 38.3418V37.8047H95.5586V38.3418H97.5586ZM96.5586 36.8047H95.4844V38.8047H96.5586V36.8047ZM96.4844 37.8047V37.2188H94.4844V37.8047H96.4844ZM95.4844 36.2188H94.3613V38.2188H95.4844V36.2188ZM95.3613 37.2188V36.6816H93.3613V37.2188H95.3613ZM94.3613 35.6816H93.7754V37.6816H94.3613V35.6816ZM94.7754 36.6816V36.0957H92.7754V36.6816H94.7754ZM93.7754 35.0957H92.75V37.0957H93.7754V35.0957ZM93.75 36.0957V35.6074H91.75V36.0957H93.75ZM92.75 34.6074H92.1641V36.6074H92.75V34.6074ZM93.1641 35.6074V35.0215H91.1641V35.6074H93.1641ZM92.1641 34.0215H91.627V36.0215H92.1641V34.0215ZM92.627 35.0215V34.4844H90.627V35.0215H92.627ZM91.627 33.4844H91.041V35.4844H91.627V33.4844ZM92.041 34.4844V33.4102H90.041V34.4844H92.041ZM91.041 32.4102H90.5527V34.4102H91.041V32.4102ZM91.5527 33.4102V32.8242H89.5527V33.4102H91.5527ZM90.5527 31.8242H89.9668V33.8242H90.5527V31.8242ZM90.9668 32.8242V31.7012H88.9668V32.8242H90.9668ZM89.9668 30.7012H89.4297V32.7012H89.9668V30.7012ZM90.4297 31.7012V29.5527H88.4297V31.7012H90.4297ZM89.4297 28.5527H88.8438V30.5527H89.4297V28.5527ZM89.8438 29.5527V22.9609H87.8438V29.5527H89.8438ZM88.8438 23.9609H89.4297V21.9609H88.8438V23.9609ZM90.4297 22.9609V21.3008H88.4297V22.9609H90.4297ZM89.4297 22.3008H89.9668V20.3008H89.4297V22.3008ZM90.9668 21.3008V19.6406H88.9668V21.3008H90.9668ZM89.9668 20.6406H90.5527V18.6406H89.9668V20.6406ZM91.5527 19.6406V18.5176H89.5527V19.6406H91.5527ZM90.5527 19.5176H91.041V17.5176H90.5527V19.5176ZM92.041 18.5176V18.0293H90.041V18.5176H92.041ZM91.041 19.0293H91.627V17.0293H91.041V19.0293ZM92.627 18.0293V17.4434H90.627V18.0293H92.627ZM91.627 18.4434H92.1641V16.4434H91.627V18.4434ZM93.1641 17.4434V16.9062H91.1641V17.4434H93.1641ZM92.1641 17.9062H92.75V15.9062H92.1641V17.9062ZM93.75 16.9062V16.3203H91.75V16.9062H93.75ZM92.75 17.3203H93.2383V15.3203H92.75V17.3203ZM94.2383 16.3203V15.7832H92.2383V16.3203H94.2383ZM93.2383 16.7832H93.7754V14.7832H93.2383V16.7832ZM94.7754 15.7832V15.2461H92.7754V15.7832H94.7754ZM93.7754 16.2461H94.8984V14.2461H93.7754V16.2461ZM95.8984 15.2461V14.709H93.8984V15.2461H95.8984ZM94.8984 15.709H95.9727V13.709H94.8984V15.709ZM96.9727 14.709V14.123H94.9727V14.709H96.9727ZM95.9727 15.123H97.0957V13.123H95.9727V15.123ZM98.0957 14.123V13.5859H96.0957V14.123H98.0957ZM97.0957 14.5859H105.885V12.5859H97.0957V14.5859ZM104.885 13.5859V14.123H106.885V13.5859H104.885ZM105.885 15.123H107.496V13.123H105.885V15.123ZM108.496 14.123V12.5117H106.496V14.123H108.496ZM107.496 13.5117H108.082V11.5117H107.496V13.5117ZM109.082 12.5117V11.3887H107.082V12.5117H109.082ZM108.082 10.3887H107.496V12.3887H108.082V10.3887ZM108.496 11.3887V8.06836H106.496V11.3887H108.496ZM107.496 9.06836H108.082V7.06836H107.496V9.06836ZM109.082 8.06836V6.45703H107.082V8.06836H109.082ZM108.082 5.45703H107.496V7.45703H108.082V5.45703ZM108.496 6.45703V5.38281H106.496V6.45703H108.496ZM107.496 4.38281H105.885V6.38281H107.496V4.38281ZM106.885 5.38281V4.8457H104.885V5.38281H106.885ZM105.885 3.8457H103.102V5.8457H105.885V3.8457ZM104.102 4.8457V2.64844H102.102V4.8457H104.102ZM103.102 3.64844H103.688V1.64844H103.102V3.64844ZM104.688 2.64844V2.0625H102.688V2.64844H104.688ZM103.688 3.0625H104.811V1.0625H103.688V3.0625ZM105.811 2.0625V1.52539H103.811V2.0625H105.811ZM104.811 2.52539H107.496V0.525391H104.811V2.52539ZM108.496 1.52539V0.939453H106.496V1.52539H108.496ZM107.496 1.93945H109.205V-0.0605469H107.496V1.93945ZM110.205 0.939453V0.451172H108.205V0.939453H110.205Z" fill="black" fill-opacity="0.3" mask="url(#path-1-outside-1_9_6)"/>
</svg>
